<?xml version="1.0" encoding="UTF-8" standalone="no"?>
<!-- Created with Inkscape (http://www.inkscape.org/) -->

<svg
   width="5.2718463mm"
   height="5.2718749mm"
   viewBox="0 0 5.2718464 5.2718749"
   version="1.1"
   id="svg1"
   xml:space="preserve"
   xmlns="http://www.w3.org/2000/svg"
   xmlns:svg="http://www.w3.org/2000/svg"><defs
     id="defs1" /><g
     id="layer1"
     transform="translate(46.400314,-217.7606)"><g
       id="g584"><rect
         style="opacity:0;fill:#ffffff;fill-opacity:1;stroke:none;stroke-width:0.82777;stroke-linecap:round;stroke-linejoin:round;stroke-miterlimit:4;stroke-dasharray:none;stroke-dashoffset:0;stroke-opacity:1;paint-order:fill markers stroke;stop-color:#000000"
         id="rect342"
         width="5.2717261"
         height="5.2717261"
         x="-46.400314"
         y="217.7606" /><path
         style="color:#000000;fill:#bbbbbb;fill-opacity:0.266667;stroke-width:0.376572;stroke-linejoin:round;stroke-dasharray:none;stroke-dashoffset:1.803;paint-order:markers fill stroke"
         d="m -42.597578,221.52825 a 1.6501322,1.6501322 0 0 1 -2.333639,0 1.6501322,1.6501322 0 0 1 0,-2.33364 1.6501322,1.6501322 0 0 1 2.333639,0 1.6501322,1.6501322 0 0 1 0,2.33364 z"
         id="path171" /><path
         id="path584"
         style="color:#000000;fill:#a3a3a3;stroke-width:0.172449;stroke-linejoin:round;stroke-dashoffset:1.803;paint-order:markers fill stroke"
         d="m -43.764482,218.58727 c -0.463624,0 -0.927229,0.17637 -1.280026,0.52917 -0.705603,0.7056 -0.705593,1.85446 0,2.56005 0.705593,0.7056 1.854447,0.70561 2.560051,0 0.705593,-0.70559 0.705596,-1.85445 0,-2.56005 -0.352799,-0.3528 -0.816402,-0.52917 -1.280025,-0.52917 z m 1.073319,0.78497 c 0.557406,0.58498 0.554963,1.5033 -0.01964,2.07791 -0.574615,0.5746 -1.492938,0.57703 -2.077909,0.0196 z m 1.562695,2.56056 -1.100191,1.09968 h 1.100191 z" /></g></g></svg>
