<?xml version="1.0" encoding="UTF-8" standalone="no"?>
<!-- Created with Inkscape (http://www.inkscape.org/) -->

<svg
   width="5.2717261mm"
   height="5.2717261mm"
   viewBox="0 0 5.2717263 5.2717261"
   version="1.1"
   id="svg1"
   xml:space="preserve"
   xmlns="http://www.w3.org/2000/svg"
   xmlns:svg="http://www.w3.org/2000/svg"><defs
     id="defs1" /><g
     id="layer1"
     transform="translate(46.347336,-227.22162)"><g
       id="g625"><rect
         style="opacity:0;fill:#ffffff;fill-opacity:1;stroke:none;stroke-width:0.82777;stroke-linecap:round;stroke-linejoin:round;stroke-miterlimit:4;stroke-dasharray:none;stroke-dashoffset:0;stroke-opacity:1;paint-order:fill markers stroke;stop-color:#000000"
         id="rect439"
         width="5.2717261"
         height="5.2717261"
         x="-46.347336"
         y="227.22162" /><g
         id="g288"
         transform="translate(-224.70319,227.75582)"><g
           id="rect287"><path
             style="color:#000000;fill:#bbbbbb;fill-opacity:0.266667;stroke-width:0.320692;stroke-linejoin:round;stroke-dashoffset:1.803;paint-order:fill markers stroke"
             d="m 179.72875,0.42538896 h 2.52594 c 0.22897,0 0.4133,0.18433543 0.4133,0.41330815 V 3.3646294 c 0,0.2289727 -0.18433,0.4133082 -0.4133,0.4133082 h -2.52594 c -0.22897,0 -0.41331,-0.1843355 -0.41331,-0.4133082 V 0.83869711 c 0,-0.22897272 0.18434,-0.41330815 0.41331,-0.41330815 z"
             id="path624" /><path
             id="path625"
             style="color:#000000;fill:#a3a3a3;stroke-linejoin:round;stroke-dashoffset:1.803;paint-order:fill markers stroke"
             d="m 179.72845,0.26550058 c -0.31503,0 -0.57413,0.25754464 -0.57413,0.57257487 V 3.365053 c 0,0.3150302 0.2591,0.5725749 0.57413,0.5725749 h 2.52542 c 0.31503,0 0.57413,-0.2575447 0.57413,-0.5725749 V 0.83807545 c 0,-0.31503023 -0.2591,-0.57257487 -0.57413,-0.57257487 z m 0,0.32039388 h 2.52542 c 0.14291,0 0.25373,0.1092667 0.25373,0.25218099 V 3.365053 c 0,0.1429142 -0.11082,0.252181 -0.25373,0.252181 h -2.52542 c -0.14292,0 -0.25167,-0.1092668 -0.25167,-0.252181 V 0.83807545 c 0,-0.14291429 0.10875,-0.25218099 0.25167,-0.25218099 z m 0.60048,0.57464194 a 0.2771695,0.2771695 0 0 0 -0.19637,0.081649 0.2771695,0.2771695 0 0 0 0,0.3927409 l 0.46663,0.4666382 -0.46663,0.4666382 a 0.2771695,0.2771695 0 0 0 0,0.3927409 0.2771695,0.2771695 0 0 0 0.39274,0 l 0.46663,-0.467155 0.46716,0.467155 a 0.2771695,0.2771695 0 0 0 0.39067,0 0.2771695,0.2771695 0 0 0 0,-0.3927409 l -0.46612,-0.4666382 0.46612,-0.4666382 a 0.2771695,0.2771695 0 0 0 0,-0.3927409 0.2771695,0.2771695 0 0 0 -0.39067,0 l -0.46716,0.467155 -0.46663,-0.467155 a 0.2771695,0.2771695 0 0 0 -0.19637,-0.081649 z" /></g><g
           id="path287"><path
             style="color:#000000;fill:#000000;stroke-width:0.554339;stroke-linecap:round;stroke-linejoin:round;paint-order:fill markers stroke"
             d="m 180.32884,1.4387836 1.32574,1.3257582"
             id="path621" /></g><g
           id="path288"><path
             style="color:#000000;fill:#000000;stroke-width:0.554339;stroke-linecap:round;stroke-linejoin:round;paint-order:fill markers stroke"
             d="m 180.32884,2.7645418 1.32574,-1.3257582"
             id="path623" /></g></g></g></g></svg>
