<?xml version="1.0" encoding="UTF-8" standalone="no"?>
<!-- Created with Inkscape (http://www.inkscape.org/) -->

<svg
   width="5.2717261mm"
   height="5.2717261mm"
   viewBox="0 0 5.2717263 5.2717261"
   version="1.1"
   id="svg1"
   xml:space="preserve"
   xmlns="http://www.w3.org/2000/svg"
   xmlns:svg="http://www.w3.org/2000/svg"><defs
     id="defs1" /><g
     id="layer1"
     transform="translate(73.558022,-217.7606)"><g
       id="g593"><rect
         style="opacity:0;fill:#ffffff;fill-opacity:1;stroke:none;stroke-width:0.82777;stroke-linecap:round;stroke-linejoin:round;stroke-miterlimit:4;stroke-dasharray:none;stroke-dashoffset:0;stroke-opacity:1;paint-order:fill markers stroke;stop-color:#000000"
         id="rect345"
         width="5.2717261"
         height="5.2717261"
         x="-73.558022"
         y="217.7606" /><g
         id="g592"><path
           style="color:#000000;fill:#bbbbbb;fill-opacity:0.266667;stroke-width:0.320434;stroke-linecap:round;stroke-linejoin:round;paint-order:fill markers stroke"
           d="m -72.383513,221.72746 0.0021,-2.28224 2.898964,-0.002 -0.0021,2.28224 z"
           id="path591" /><path
           id="path592"
           style="color:#000000;fill:#a3a3a3;stroke-width:0.328988;stroke-linecap:round;stroke-linejoin:round;paint-order:fill markers stroke"
           d="m -72.312598,218.80897 c -0.140871,-10e-6 -0.228865,0.0925 -0.229007,0.20714 1.49e-4,0.8872 -0.0012,1.7949 -0.0021,2.71095 1.4e-5,0.0885 0.07173,0.1602 0.160212,0.16021 l 2.899045,-0.002 c 0.08827,-3e-4 0.159414,-0.0722 0.15994,-0.15994 l 0.0021,-2.28257 c -1.63e-4,-0.0422 -0.01694,-0.0822 -0.04649,-0.11211 l 2.33e-4,-2.4e-4 c -0.03007,-0.0299 -0.07079,-0.0466 -0.11317,-0.0465 l -1.79574,0.001 -0.08374,-0.23567 c -0.0372,-0.0841 -0.07455,-0.23978 -0.278015,-0.23977 z m 2.670105,0.79477 -0.0015,1.96269 -2.578657,0.001 0.0021,-1.96164 z m -1.467595,0.25737 -5e-6,0.55138 h -0.544674 l 7e-6,0.40411 0.544674,1e-5 -7e-6,0.53277 0.393783,1e-5 -1.4e-5,-0.5328 0.511085,1e-5 -7e-6,-0.40412 -0.511061,2e-5 -1.9e-5,-0.55141 z" /></g></g></g></svg>
