<?xml version="1.0" encoding="UTF-8" standalone="no"?>
<!-- Created with Inkscape (http://www.inkscape.org/) -->

<svg
   width="5.2717261mm"
   height="5.2717261mm"
   viewBox="0 0 5.2717263 5.2717261"
   version="1.1"
   id="svg1"
   xml:space="preserve"
   xmlns="http://www.w3.org/2000/svg"
   xmlns:svg="http://www.w3.org/2000/svg"><defs
     id="defs1" /><g
     id="layer1"
     transform="translate(10.119294,-217.7606)"><g
       id="g544"><rect
         style="opacity:0;fill:#ffffff;fill-opacity:1;stroke:none;stroke-width:0.82777;stroke-linecap:round;stroke-linejoin:round;stroke-miterlimit:4;stroke-dasharray:none;stroke-dashoffset:0;stroke-opacity:1;paint-order:fill markers stroke;stop-color:#000000"
         id="rect336"
         width="5.2717261"
         height="5.2717261"
         x="-10.119294"
         y="217.7606" /><path
         style="color:#000000;fill:#bbbbbb;fill-opacity:0.266667;stroke-width:0.320763;stroke-linejoin:round;stroke-dashoffset:1.803;paint-order:fill markers stroke"
         d="m -6.3083731,219.34557 0.016413,2.25261 c 0.00373,0.26474 -0.2277941,0.47772 -0.5107214,0.47772 h -1.3618778 c -0.2829273,0 -0.5126859,-0.21298 -0.5107213,-0.47772 l 0.016413,-2.25261 z"
         id="path535" /><g
         id="path130"
         transform="matrix(0.32898754,0,0,0.32898754,-508.59287,95.933064)"><path
           style="color:#000000;fill:#a3a3a3;stroke-width:0.774;stroke-linejoin:round;paint-order:fill markers stroke"
           d="m 1523.1817,377.24085 0.01,3.8529"
           id="path539" /></g><g
         id="path132"
         transform="matrix(0.32898754,0,0,0.32898754,-508.01857,95.933064)"><path
           style="color:#000000;fill:#a3a3a3;stroke-width:0.774;stroke-linejoin:round;paint-order:fill markers stroke"
           d="m 1523.1817,377.24085 0.01,3.8529"
           id="path537" /></g><g
         id="path133"
         transform="matrix(0.32898754,0,0,0.32898754,-509.16718,95.933064)"><path
           style="color:#000000;fill:#a3a3a3;stroke-width:0.774;stroke-linejoin:round;paint-order:fill markers stroke"
           d="m 1523.1817,377.24085 0.01,3.8529"
           id="path541" /><g
           id="g543"><path
             id="path536"
             style="color:#000000;fill:#a3a3a3;stroke-width:1.24342;stroke-linejoin:round;stroke-dashoffset:1.803;paint-order:fill markers stroke"
             d="m -7.0142636,218.55523 v 0.002 l -0.9399943,0.002 a 0.16023285,0.16023285 0 0 0 -0.1529622,0.11885 l -0.089917,0.34262 h -0.9399943 v 0.32039 h 0.3188436 a 0.16039761,0.16039761 0 0 0 -5.168e-4,0.002 l -0.017053,2.25361 c -0.00249,0.35816 0.3068301,0.63872 0.6702433,0.63872 h 1.3627075 c 0.3634258,0 0.6773711,-0.28188 0.6723104,-0.64131 l -0.017053,-2.25102 a 0.16039761,0.16039761 0 0 0 -0.00103,-0.0103 h 0.3193603 v -0.32091 h -0.9446452 l -0.085266,-0.33486 a 0.16023285,0.16023285 0 0 0 -0.1550293,-0.12144 z m -0.1240234,0.32194 0.075964,0.30851 h -0.8469767 l 0.081132,-0.30592 z m -1.3621908,0.62942 h 2.0324341 l 0.014469,2.09342 c 0.00249,0.17005 -0.1468921,0.31574 -0.3493327,0.31574 h -1.3627075 c -0.2024406,0 -0.3511177,-0.14444 -0.3498494,-0.31574 z m 0.5684408,0.53382 -0.2547648,5.2e-4 0.00362,1.26814 0.2542481,-0.002 z m 0.5741252,0 -0.2542481,5.2e-4 0.0031,1.26814 0.254248,-0.002 z m 0.5741251,0 -0.254248,5.2e-4 0.0031,1.26814 0.2547648,-0.002 z"
             transform="matrix(3.0396288,0,0,3.0396288,1547.6792,-291.6009)" /><g
             id="g542" /></g></g></g></g></svg>
