<?xml version="1.0" encoding="UTF-8" standalone="no"?>
<!-- Created with Inkscape (http://www.inkscape.org/) -->

<svg
   width="5.2717261mm"
   height="5.2717261mm"
   viewBox="0 0 5.2717263 5.2717261"
   version="1.1"
   id="svg1"
   xml:space="preserve"
   xmlns="http://www.w3.org/2000/svg"
   xmlns:svg="http://www.w3.org/2000/svg"><defs
     id="defs1" /><g
     id="layer1"
     transform="translate(55.417564,-227.22142)"><g
       id="g620"><rect
         style="opacity:0;fill:#ffffff;fill-opacity:1;stroke:none;stroke-width:0.82777;stroke-linecap:round;stroke-linejoin:round;stroke-miterlimit:4;stroke-dasharray:none;stroke-dashoffset:0;stroke-opacity:1;paint-order:fill markers stroke;stop-color:#000000"
         id="rect438"
         width="5.2717261"
         height="5.2717261"
         x="-55.417564"
         y="227.22142" /><path
         style="color:#000000;fill:#bbbbbb;fill-opacity:0.266667;stroke-width:0.320692;stroke-linejoin:round;stroke-dashoffset:1.803;paint-order:fill markers stroke"
         d="m -54.09738,228.18101 h 2.63137 c 0.19976,0 0.36059,0.16082 0.36059,0.36059 v 2.63137 c 0,0.19976 -0.16083,0.36059 -0.36059,0.36059 h -2.63137 c -0.19977,0 -0.36059,-0.16083 -0.36059,-0.36059 v -2.63137 c 0,-0.19977 0.16082,-0.36059 0.36059,-0.36059 z"
         id="path619" /><path
         id="path620"
         style="color:#000000;fill:#a3a3a3;stroke-linejoin:round;stroke-dashoffset:1.803;paint-order:fill markers stroke"
         d="m -54.09667,228.02132 c -0.28583,0 -0.52141,0.23352 -0.52141,0.51935 v 2.63291 c 0,0.28583 0.23558,0.51935 0.52141,0.51935 h 2.63085 c 0.28582,0 0.52141,-0.23352 0.52141,-0.51935 v -2.63291 c 0,-0.28583 -0.23559,-0.51935 -0.52141,-0.51935 z m 0,0.32039 h 2.63085 c 0.11371,0 0.19895,0.0853 0.19895,0.19896 v 2.33939 l -0.78651,-0.68523 0.0124,-0.90279 -0.56534,-0.56637 -0.71882,0.078 0.6382,0.67283 0.0372,0.48111 -0.032,0.0341 -0.48162,-0.0393 -0.67231,-0.63872 -0.0796,0.7183 0.56585,0.56999 0.90279,-0.0134 0.73122,0.78444 h -2.38125 c -0.11371,0 -0.20102,-0.0858 -0.20102,-0.19947 v -2.63291 c 0,-0.11371 0.0873,-0.19896 0.20102,-0.19896 z" /></g></g></svg>
