<?xml version="1.0" encoding="UTF-8" standalone="no"?>
<!-- Created with Inkscape (http://www.inkscape.org/) -->

<svg
   width="5.2717261mm"
   height="5.2717261mm"
   viewBox="0 0 5.2717263 5.2717261"
   version="1.1"
   id="svg1"
   xml:space="preserve"
   xmlns="http://www.w3.org/2000/svg"
   xmlns:svg="http://www.w3.org/2000/svg"><defs
     id="defs1" /><g
     id="layer1"
     transform="translate(64.487793,-217.7606)"><g
       id="g590"><rect
         style="opacity:0;fill:#ffffff;fill-opacity:1;stroke:none;stroke-width:0.82777;stroke-linecap:round;stroke-linejoin:round;stroke-miterlimit:4;stroke-dasharray:none;stroke-dashoffset:0;stroke-opacity:1;paint-order:fill markers stroke;stop-color:#000000"
         id="rect344"
         width="5.2717261"
         height="5.2717261"
         x="-64.487793"
         y="217.7606" /><path
         style="color:#000000;fill:#bbbbbb;fill-opacity:0.266667;stroke-width:0.311612;stroke-linecap:round;stroke-linejoin:round;paint-order:fill markers stroke"
         d="m -61.866813,221.13357 -1.664734,-1.20352 1.694504,-1.22505 1.664734,1.20352 z"
         id="path589" /><path
         id="path590"
         style="color:#000000;fill:#a3a3a3;stroke-width:0.142701;stroke-linecap:round;stroke-linejoin:round;paint-order:fill markers stroke"
         d="m -61.857435,218.57332 c -0.0412,0.003 -0.07963,0.0166 -0.109037,0.0377 l -1.69447,1.22525 c -0.07177,0.0518 -0.07177,0.13582 0,0.18759 l 1.664497,1.20354 c 0.0716,0.0519 0.18782,0.0519 0.259416,0 l 1.69447,-1.22525 c 0.07115,-0.0518 0.07092,-0.13547 -5.16e-4,-0.18707 l -1.664498,-1.20354 c -0.03932,-0.0285 -0.09447,-0.0426 -0.149862,-0.0382 z m 0.02067,0.31884 1.405082,1.01648 -1.435055,1.03766 -1.405599,-1.01648 z m 1.547709,1.81591 c -0.03253,0.002 -0.06334,0.0113 -0.08785,0.0269 l -1.492416,0.9369 -1.470194,-0.91881 c -0.05922,-0.0371 -0.147768,-0.0353 -0.204122,0.004 l -0.103353,0.0713 c -0.06093,0.0425 -0.06188,0.11277 -0.0021,0.15606 l 1.664498,1.20354 c 0.05909,0.0427 0.154854,0.0427 0.21394,0 l 1.694471,-1.22473 c 0.05939,-0.0428 0.05939,-0.11227 0,-0.15503 l -0.09457,-0.0682 c -0.0311,-0.0226 -0.07433,-0.0343 -0.118339,-0.032 z" /></g></g></svg>
