<?xml version="1.0" encoding="UTF-8" standalone="no"?>
<!-- Created with Inkscape (http://www.inkscape.org/) -->

<svg
   width="5.2717261mm"
   height="5.2717261mm"
   viewBox="0 0 5.2717263 5.2717261"
   version="1.1"
   id="svg1"
   xml:space="preserve"
   xmlns="http://www.w3.org/2000/svg"
   xmlns:svg="http://www.w3.org/2000/svg"><defs
     id="defs1" /><g
     id="layer1"
     transform="translate(10.119266,-236.71306)"><g
       id="g631"><rect
         style="opacity:0;fill:#ffffff;fill-opacity:1;stroke:none;stroke-width:0.82777;stroke-linecap:round;stroke-linejoin:round;stroke-miterlimit:4;stroke-dasharray:none;stroke-dashoffset:0;stroke-opacity:1;paint-order:fill markers stroke;stop-color:#000000"
         id="rect442"
         width="5.2717261"
         height="5.2717261"
         x="-10.119266"
         y="236.71306" /><path
         style="color:#000000;fill:#bbbbbb;fill-opacity:0.266667;stroke-width:0.320802;stroke-linejoin:round;stroke-dashoffset:1.803;paint-order:fill markers stroke"
         d="m -9.1596824,237.67265 h 3.35256 l -1.20677,1.49152 0.004,1.35215 -0.9493,0.50888 0.004,-1.86103 z"
         id="path528" /><path
         style="color:#000000;fill:#a3a3a3;stroke-linejoin:round;stroke-dashoffset:1.803;paint-order:fill markers stroke"
         d="m -9.1601563,237.51222 a 0.16041704,0.16041704 0 0 0 -0.125,0.25977 l 1.1699219,1.44726 -0.00391,1.80469 a 0.16041704,0.16041704 0 0 0 0.2363281,0.14258 l 0.9492188,-0.50977 a 0.16041704,0.16041704 0 0 0 0.083984,-0.14258 l -0.00391,-1.29492 1.171875,-1.44726 a 0.16041704,0.16041704 0 0 0 -0.125,-0.25977 z m 0.3359375,0.32031 h 2.6816407 l -0.9960938,1.23047 a 0.16041704,0.16041704 0 0 0 -0.035156,0.10157 l 0.00391,1.25585 -0.6289062,0.33594 0.00391,-1.59375 a 0.16041704,0.16041704 0 0 0 -0.035156,-0.0996 z"
         id="path529" /></g></g></svg>
