<?xml version="1.0" encoding="UTF-8" standalone="no"?>
<!-- Created with Inkscape (http://www.inkscape.org/) -->

<svg
   width="10.552536mm"
   height="10.552536mm"
   viewBox="0 0 10.552536 10.552536"
   version="1.1"
   id="svg1"
   inkscape:version="1.3-dev (82aa67f2, 2022-10-21)"
   sodipodi:docname="layers.svg"
   xml:space="preserve"
   xmlns:inkscape="http://www.inkscape.org/namespaces/inkscape"
   xmlns:sodipodi="http://sodipodi.sourceforge.net/DTD/sodipodi-0.dtd"
   xmlns="http://www.w3.org/2000/svg"
   xmlns:svg="http://www.w3.org/2000/svg"><sodipodi:namedview
     id="namedview1"
     pagecolor="#000000"
     bordercolor="#e92727"
     borderopacity="1"
     inkscape:showpageshadow="2"
     inkscape:pageopacity="0.0"
     inkscape:pagecheckerboard="0"
     inkscape:deskcolor="#000000"
     inkscape:document-units="mm"
     showgrid="false"
     inkscape:zoom="1.4142136"
     inkscape:cx="-350.72496"
     inkscape:cy="193.74726"
     inkscape:window-width="1920"
     inkscape:window-height="1051"
     inkscape:window-x="-9"
     inkscape:window-y="-9"
     inkscape:window-maximized="1"
     inkscape:current-layer="layer1"
     showguides="true"
     inkscape:lockguides="true"><sodipodi:guide
       position="10.289877,253.89546"
       orientation="0,-1"
       id="guide243"
       inkscape:locked="true" /><sodipodi:guide
       position="-204.675,246.22483"
       orientation="1,0"
       id="guide244"
       inkscape:locked="true" /><sodipodi:guide
       position="-211.03602,245.47647"
       orientation="1,0"
       id="guide245"
       inkscape:locked="true" /><sodipodi:guide
       position="-211.03602,245.47647"
       orientation="1,0"
       id="guide257"
       inkscape:locked="true" /></sodipodi:namedview><defs
     id="defs1" /><g
     inkscape:label="Layer 1"
     inkscape:groupmode="layer"
     id="layer1"
     transform="translate(20.209032,-252.83027)"><rect
       style="font-variation-settings:normal;opacity:1;fill:#d82ed0;fill-opacity:0;stroke:none;stroke-width:0.320429;stroke-linecap:square;stroke-linejoin:miter;stroke-miterlimit:4;stroke-dasharray:none;stroke-dashoffset:1.803;stroke-opacity:1;paint-order:stroke fill markers;stop-color:#000000"
       id="rect509"
       width="10.552534"
       height="10.552534"
       x="-263.38281"
       y="-20.209038"
       transform="rotate(-90)" /><path
       id="path510"
       style="font-variation-settings:normal;fill:#ffffff;fill-opacity:1;stroke:none;stroke-width:0.2;stroke-linecap:butt;stroke-linejoin:round;stroke-miterlimit:4;stroke-dasharray:none;stroke-dashoffset:1.803;stroke-opacity:1;paint-order:stroke fill markers;stop-color:#000000"
       d="m -10.88388,259.86948 c -0.19737,6e-5 -0.395,0.0757 -0.54622,0.22686 l -0.28215,0.28267 0.12971,0.12971 c -0.0702,0.0763 -0.31986,0.33761 -0.52297,0.42788 -0.23859,0.10604 -0.86144,0.25218 -0.86144,0.25218 l -0.35812,1.8557 1.90893,-0.31832 0.25166,-0.82166 c 0,0 0.28944,-0.39378 0.42995,-0.54777 l 0.1142,0.1142 0.28216,-0.28267 c 0.30244,-0.30243 0.30243,-0.78949 0,-1.09192 -0.15122,-0.15122 -0.34834,-0.22692 -0.54571,-0.22686 z m -1.32705,1.85053 a 0.23431642,0.23431642 0 0 1 0.18604,0.0677 0.23431642,0.23431642 0 0 1 0,0.33176 0.23431642,0.23431642 0 0 1 -0.33125,0 0.23431642,0.23431642 0 0 1 0,-0.33176 0.23431642,0.23431642 0 0 1 0.14521,-0.0677 z" /><g
       id="path511"><path
         style="color:#000000;fill:#000000;stroke-width:0.1;stroke-linecap:round;stroke-linejoin:round;-inkscape-stroke:none"
         d="m -10.79283,259.7305 c -0.22209,6e-5 -0.444041,0.0844 -0.613401,0.25373 l -0.28267,0.28267 c -0.0375,0.0374 -0.0928,0.10988 -0.0553,0.14728 l 0.11885,0.11317 c -0.480159,0.40925 -0.79574,0.37029 -1.291391,0.50333 -0.0359,0.01 -0.0633,0.0388 -0.0698,0.0754 l -0.31574,1.79007 c -0.01585,0.0922 -0.04881,0.15419 0.005,0.20617 0.0695,0.0535 0.141286,0.0232 0.20826,0.005 l 1.788001,-0.31574 c 0.0366,-0.006 0.0664,-0.0333 0.076,-0.0692 0.13305,-0.49565 0.174571,-0.99037 0.545701,-1.31051 l 0.0822,0.0822 c 0.0374,0.0375 0.0985,0.0375 0.1359,0 l 0.28216,-0.28216 c 0.3387397,-0.33875 0.3387397,-0.88857 0,-1.22731 -0.191869,-0.17155 -0.415439,-0.2541 -0.61377,-0.2541 z m -0.02274,1.54512 c -0.408111,0.35885 -0.464291,0.88238 -0.579291,1.3379 l -1.457791,0.25735 0.654221,-0.6537 c 0.10987,0.0329 0.23426,0.006 0.32039,-0.0801 0.12453,-0.12453 0.12453,-0.3292 0,-0.45372 -0.12452,-0.12454 -0.32971,-0.12453 -0.45423,0 -0.0863,0.0862 -0.11189,0.2114 -0.0786,0.32143 l -0.654741,0.65474 0.25735,-1.45935 c 0.455441,-0.11498 0.979061,-0.17144 1.337901,-0.57929 z"
         id="path653" /><path
         style="color:#000000;fill:#000000;stroke-linecap:round;stroke-linejoin:round;-inkscape-stroke:none"
         d="m -10.792969,259.67969 c -0.234739,6e-5 -0.469502,0.0906 -0.648437,0.26953 l -0.283203,0.2832 c -0.02148,0.0214 -0.04655,0.0504 -0.06445,0.0859 -0.009,0.0178 -0.01666,0.0373 -0.01758,0.0606 -9.13e-4,0.0232 0.0079,0.0509 0.02734,0.0703 -1.3e-5,6.7e-4 -1.3e-5,10e-4 0,0.002 l 0.07031,0.0664 c -0.209818,0.168 -0.390504,0.26444 -0.570313,0.3164 -0.195709,0.0566 -0.398819,0.0809 -0.650391,0.14844 -0.05347,0.0149 -0.09553,0.0593 -0.105468,0.11524 l -0.316407,1.78906 c -0.03967,0.22495 0.112676,0.2971 0.271477,0.26965 l 1.787109,-0.31641 v 0.002 c 0.05622,-0.009 0.102551,-0.0527 0.117188,-0.10743 0.129619,-0.48286 0.190808,-0.93258 0.509765,-1.23828 l 0.0332,0.0332 c 0.05663,0.0568 0.150404,0.0568 0.207032,0 l 0.28125,-0.28125 c 0.357867,-0.35788 0.3578679,-0.94096 0,-1.29883 -0.254017,-0.21838 -0.416434,-0.26958 -0.648485,-0.26958 z m -0.691406,0.99804 0.613281,0.61329 c -0.37165,0.3615 -0.454383,0.85134 -0.558594,1.27734 l -1.27539,0.22656 0.539062,-0.54101 c 0.113777,0.018 0.237306,0.005 0.324219,-0.082 0.143899,-0.14389 0.143902,-0.37954 0,-0.52343 -0.143939,-0.14396 -0.381452,-0.14395 -0.525391,0 -0.08618,0.0861 -0.09507,0.20769 -0.07813,0.32031 1.22e-4,8.1e-4 -0.0021,10e-4 -0.002,0.002 l -0.541015,0.54102 0.224609,-1.27735 c 0.426478,-0.10433 0.917688,-0.18396 1.279297,-0.55664 z"
         id="path654"
         sodipodi:nodetypes="cscsscccsccccccccccsccccccccscscccscc" /></g><g
       id="path514"><path
         style="color:#000000;fill:#ffffff;stroke-width:0.3;-inkscape-stroke:none;paint-order:stroke fill markers"
         d="m -12.013237,261.81901 -1.208185,1.20818"
         id="path652" /></g></g></svg>
