<?xml version="1.0" encoding="UTF-8" standalone="no"?>
<!-- Created with Inkscape (http://www.inkscape.org/) -->

<svg
   width="11.493866mm"
   height="11.49646mm"
   viewBox="0 0 11.493866 11.49646"
   version="1.1"
   id="svg1"
   inkscape:version="1.3-dev (82aa67f2, 2022-10-21)"
   sodipodi:docname="layers.svg"
   xml:space="preserve"
   xmlns:inkscape="http://www.inkscape.org/namespaces/inkscape"
   xmlns:sodipodi="http://sodipodi.sourceforge.net/DTD/sodipodi-0.dtd"
   xmlns="http://www.w3.org/2000/svg"
   xmlns:svg="http://www.w3.org/2000/svg"><sodipodi:namedview
     id="namedview1"
     pagecolor="#000000"
     bordercolor="#e92727"
     borderopacity="1"
     inkscape:showpageshadow="2"
     inkscape:pageopacity="0.0"
     inkscape:pagecheckerboard="0"
     inkscape:deskcolor="#000000"
     inkscape:document-units="mm"
     showgrid="false"
     inkscape:zoom="1.4142136"
     inkscape:cx="-350.72496"
     inkscape:cy="193.74726"
     inkscape:window-width="1920"
     inkscape:window-height="1051"
     inkscape:window-x="-9"
     inkscape:window-y="-9"
     inkscape:window-maximized="1"
     inkscape:current-layer="layer1"
     showguides="true"
     inkscape:lockguides="true"><sodipodi:guide
       position="10.289877,253.89546"
       orientation="0,-1"
       id="guide243"
       inkscape:locked="true" /><sodipodi:guide
       position="-204.675,246.22483"
       orientation="1,0"
       id="guide244"
       inkscape:locked="true" /><sodipodi:guide
       position="-211.03602,245.47647"
       orientation="1,0"
       id="guide245"
       inkscape:locked="true" /><sodipodi:guide
       position="-211.03602,245.47647"
       orientation="1,0"
       id="guide257"
       inkscape:locked="true" /></sodipodi:namedview><defs
     id="defs1" /><g
     inkscape:label="Layer 1"
     inkscape:groupmode="layer"
     id="layer1"
     transform="translate(33.521578,-267.25478)"><path
       id="path512"
       style="color:#000000;fill:#a70048;stroke-linecap:round;stroke-linejoin:round;paint-order:fill markers stroke"
       d="m -33.051331,267.25478 c -0.26059,3.3e-4 -0.471007,0.21225 -0.470256,0.47284 v 3.56257 c -7.45e-4,0.26059 0.20967,0.47251 0.470256,0.47284 1.79e-4,10e-6 3.38e-4,0 5.17e-4,0 v -4.03644 h 4.034896 c 1.83e-4,-0.26011 -0.210533,-0.47148 -0.470773,-0.47181 z m 6.990271,0 c -0.261002,-7.5e-4 -0.472506,0.21094 -0.472323,0.47181 h 4.035413 v 4.03644 c 0.260347,-6.1e-4 0.471,-0.21242 0.470255,-0.47284 v -3.56257 c 7.51e-4,-0.26059 -0.210182,-0.47251 -0.470772,-0.47284 z m -6.990271,6.99027 c -0.259824,3.3e-4 -0.469924,0.21096 -0.470256,0.47078 v 3.56464 c 3.32e-4,0.25982 0.210432,0.47044 0.470256,0.47077 h 3.56464 c 0.259824,-3.3e-4 0.470441,-0.21095 0.470773,-0.47077 3e-6,-3.6e-4 -4e-6,-6.8e-4 0,-10e-4 h -4.034896 v -4.03438 z m 10.553361,0 v 4.03438 h -4.035413 v 0.001 c 3.32e-4,0.26059 0.211737,0.47152 0.472323,0.47077 h 3.562573 c 0.259824,-3.3e-4 0.47044,-0.21095 0.470772,-0.47077 v -3.56464 c -3.31e-4,-0.25965 -0.210671,-0.47017 -0.470255,-0.47078 z" /></g></svg>
