<?xml version="1.0" encoding="UTF-8" standalone="no"?>
<!-- Created with Inkscape (http://www.inkscape.org/) -->

<svg
   width="5.2717261mm"
   height="5.2717261mm"
   viewBox="0 0 5.2717263 5.2717261"
   version="1.1"
   id="svg1"
   xml:space="preserve"
   xmlns="http://www.w3.org/2000/svg"
   xmlns:svg="http://www.w3.org/2000/svg"><defs
     id="defs1" /><g
     id="layer1"
     transform="translate(55.417564,-236.6582)"><g
       id="g567"><rect
         style="opacity:0;fill:#ffffff;fill-opacity:1;stroke:none;stroke-width:0.82777;stroke-linecap:round;stroke-linejoin:round;stroke-miterlimit:4;stroke-dasharray:none;stroke-dashoffset:0;stroke-opacity:1;paint-order:fill markers stroke;stop-color:#000000"
         id="rect455"
         width="5.2717261"
         height="5.2717261"
         x="-55.417564"
         y="236.6582" /><path
         style="color:#000000;fill:#bbbbbb;fill-opacity:0.266667;stroke-width:0.320434;stroke-linecap:round;stroke-linejoin:round;paint-order:fill markers stroke"
         d="m -54.232213,240.65579 0.0021,-2.28224 2.898964,-0.002 -0.0021,2.28224 z"
         id="path566" /><path
         id="path567"
         style="color:#000000;fill:#a3a3a3;stroke-width:0.328988;stroke-linecap:round;stroke-linejoin:round;paint-order:fill markers stroke"
         d="m -54.161254,237.75459 c -0.140871,-1e-5 -0.228935,0.0924 -0.229007,0.20714 l -0.0021,2.71094 c -2.74e-4,0.0887 0.07154,0.16072 0.160236,0.1607 l 2.899047,-0.002 c 0.08806,-3e-4 0.159372,-0.0716 0.159682,-0.15968 l 0.0021,-2.28307 c -9.3e-5,-0.0422 -0.01678,-0.0827 -0.04651,-0.11266 -1.79e-4,-1e-5 -3.35e-4,1e-5 -2.32e-4,2.3e-4 -7e-6,-1.8e-4 9e-6,-3.3e-4 2.32e-4,-2.3e-4 -0.03007,-0.0299 -0.07079,-0.0466 -0.113169,-0.0465 l -1.795764,0.001 -0.08371,-0.23564 c -0.03723,-0.0841 -0.07455,-0.23978 -0.278015,-0.23977 z m 2.670103,0.79528 -0.0016,1.96215 -2.578636,0.002 0.0021,-1.96215 z" /></g></g></svg>
