<?xml version="1.0" encoding="UTF-8" standalone="no"?>
<!-- Created with Inkscape (http://www.inkscape.org/) -->

<svg
   width="5.2717261mm"
   height="5.2717261mm"
   viewBox="0 0 5.2717263 5.2717261"
   version="1.1"
   id="svg1"
   xml:space="preserve"
   xmlns="http://www.w3.org/2000/svg"
   xmlns:svg="http://www.w3.org/2000/svg"><defs
     id="defs1" /><g
     id="layer1"
     transform="translate(82.62825,-227.00418)"><g
       id="g605"><rect
         style="opacity:0;fill:#ffffff;fill-opacity:1;stroke:none;stroke-width:0.82777;stroke-linecap:round;stroke-linejoin:round;stroke-miterlimit:4;stroke-dasharray:none;stroke-dashoffset:0;stroke-opacity:1;paint-order:fill markers stroke;stop-color:#000000"
         id="rect456"
         width="5.2717261"
         height="5.2717261"
         x="-82.62825"
         y="227.00418" /><path
         id="path599"
         style="color:#000000;fill:#a3a3a3;stroke-width:0.142441;stroke-linejoin:round;stroke-dashoffset:1.803;-inkscape-stroke:none;paint-order:markers fill stroke"
         d="m -81.904273,229.51684 a 0.12395677,0.1330518 0 0 0 -0.08837,0.23564 c 0,0 0.260278,0.23224 0.617533,0.48318 l -0.131775,0.1788 a 0.12841047,0.12841047 0 0 0 0.02687,0.17931 0.12841047,0.12841047 0 0 0 0.179834,-0.0269 l 0.138493,-0.18758 c 0.188639,0.12163 0.392422,0.23786 0.593245,0.32452 0.129085,0.0557 0.285364,0.0897 0.447002,0.10129 l 0.0041,0.18655 a 0.12841047,0.12841047 0 0 0 0.131258,0.12609 0.12841047,0.12841047 0 0 0 0.125574,-0.13177 l -0.0041,-0.18139 c 0.16212,-0.0116 0.318596,-0.0449 0.448035,-0.10077 0.200831,-0.0867 0.404605,-0.20289 0.593246,-0.32452 l 0.138492,0.18758 a 0.12841047,0.12841047 0 0 0 0.179834,0.0269 0.12841047,0.12841047 0 0 0 0.02687,-0.17931 l -0.131775,-0.1788 c 0.357266,-0.25094 0.617534,-0.4837 0.617534,-0.4837 a 0.12395677,0.1330518 0 0 0 -0.02532,-0.2222 0.12395677,0.1330518 0 0 0 -0.118856,0.007 c -0.690655,0.46191 -1.221958,0.73737 -1.769401,0.7643 -0.54745,0.0269 -1.132439,-0.19001 -1.939933,-0.76223 a 0.12395677,0.1330518 0 0 0 -0.05839,-0.0217 z" /><g
         id="path242"
         transform="matrix(0.1424409,0,0,-0.1424409,-10.464677,463.30596)"><path
           style="color:#000000;fill:#bbbbbb;fill-opacity:0.266667;stroke-width:1.803;stroke-linecap:round;stroke-linejoin:round;stroke-dashoffset:1.43477;-inkscape-stroke:none;paint-order:markers fill stroke"
           d="m -496.69403,1636.2676 -1.32857,-1.7973"
           id="path604" /></g><g
         id="path243"
         transform="matrix(0.1424409,0,0,-0.1424409,-10.464677,463.30596)"><path
           style="color:#000000;fill:#bbbbbb;fill-opacity:0.266667;stroke-width:1.803;stroke-linecap:round;stroke-linejoin:round;stroke-dashoffset:1.43477;-inkscape-stroke:none;paint-order:markers fill stroke"
           d="m -479.5384,1636.2676 1.32857,-1.7973"
           id="path600" /></g><g
         id="path244"
         transform="matrix(0.1424409,0,0,-0.1424409,-10.464677,463.30596)"><path
           style="color:#000000;fill:#bbbbbb;fill-opacity:0.266667;stroke-width:1.803;stroke-linecap:round;stroke-linejoin:round;stroke-dashoffset:1.43477;-inkscape-stroke:none;paint-order:markers fill stroke"
           d="m -488.14122,1633.2049 0.05,-2.2345"
           id="path602" /></g></g></g></svg>
