<?xml version="1.0" encoding="UTF-8" standalone="no"?>
<!-- Created with Inkscape (http://www.inkscape.org/) -->

<svg
   width="5.2717261mm"
   height="5.2717261mm"
   viewBox="0 0 5.2717263 5.2717261"
   version="1.1"
   id="svg1"
   xml:space="preserve"
   sodipodi:docname="image_layer.svg"
   inkscape:version="1.3-dev (82aa67f2, 2022-10-21)"
   xmlns:inkscape="http://www.inkscape.org/namespaces/inkscape"
   xmlns:sodipodi="http://sodipodi.sourceforge.net/DTD/sodipodi-0.dtd"
   xmlns:xlink="http://www.w3.org/1999/xlink"
   xmlns="http://www.w3.org/2000/svg"
   xmlns:svg="http://www.w3.org/2000/svg"><sodipodi:namedview
     id="namedview1"
     pagecolor="#ffffff"
     bordercolor="#000000"
     borderopacity="0.25"
     inkscape:showpageshadow="2"
     inkscape:pageopacity="0.0"
     inkscape:pagecheckerboard="0"
     inkscape:deskcolor="#d1d1d1"
     inkscape:document-units="mm"
     inkscape:zoom="22.359256"
     inkscape:cx="12.388605"
     inkscape:cy="10.376016"
     inkscape:window-width="1920"
     inkscape:window-height="1051"
     inkscape:window-x="-9"
     inkscape:window-y="-9"
     inkscape:window-maximized="1"
     inkscape:current-layer="svg1" /><defs
     id="defs1"><linearGradient
       id="linearGradient166"><stop
         style="stop-color:#a3a3a3;stop-opacity:1;"
         offset="0"
         id="stop165" /><stop
         style="stop-color:#bbbbbb;stop-opacity:0.26666668;"
         offset="1"
         id="stop166" /></linearGradient><linearGradient
       inkscape:collect="always"
       xlink:href="#linearGradient166"
       id="linearGradient1"
       gradientUnits="userSpaceOnUse"
       gradientTransform="matrix(0.14674113,0,0,0.14674113,8.2682303,240.4951)"
       x1="-594.72961"
       y1="1197.9462"
       x2="-573.10284"
       y2="1197.9462" /></defs><g
     id="g404"
     transform="translate(19.30101,-236.68224)"><path
       style="color:#000000;fill:url(#linearGradient1);stroke-width:0.320802;stroke-linecap:round;stroke-linejoin:round;-inkscape-stroke:none;paint-order:fill markers stroke"
       d="m -18.108627,237.8489 v 2.9384 h 2.88696 v -2.9384 z"
       id="path403"
       sodipodi:nodetypes="ccccc" /><path
       style="color:#000000;fill:#a3a3a3;stroke-linecap:round;stroke-linejoin:round;-inkscape-stroke:none;paint-order:fill markers stroke"
       d="m -18.109375,237.68945 c -0.08839,1.4e-4 -0.160014,0.0718 -0.160156,0.16016 v 2.9375 c 1.42e-4,0.0884 0.07176,0.16002 0.160156,0.16016 h 0.125 2.107422 0.65625 c 0.08839,-1.4e-4 0.160014,-0.0718 0.160156,-0.16016 v -2.9375 c -1.42e-4,-0.0884 -0.07176,-0.16002 -0.160156,-0.16016 z m 0.162109,0.32032 h 2.564453 v 2.61718 h -0.419921 l -1.015625,-1.23047 c -0.06485,-0.0793 -0.186428,-0.0784 -0.25,0.002 l -0.878907,1.08593 z m 1.766487,0.33733 c -0.265988,-1.7e-4 -0.484142,0.21838 -0.484368,0.48437 -1.81e-4,0.26628 0.218113,0.48615 0.484368,0.48598 0.265952,-2.3e-4 0.484492,-0.21996 0.484367,-0.48598 -2.6e-4,-0.26575 -0.218689,-0.48413 -0.484367,-0.48437 z"
       id="path404"
       sodipodi:nodetypes="cccccccccccccccccccccccc" /></g></svg>
