<?xml version="1.0" encoding="UTF-8" standalone="no"?>
<!-- Created with Inkscape (http://www.inkscape.org/) -->

<svg
   width="5.2717261mm"
   height="5.2717261mm"
   viewBox="0 0 5.2717263 5.2717261"
   version="1.1"
   id="svg1"
   xml:space="preserve"
   xmlns:xlink="http://www.w3.org/1999/xlink"
   xmlns="http://www.w3.org/2000/svg"
   xmlns:svg="http://www.w3.org/2000/svg"><defs
     id="defs1"><linearGradient
       id="linearGradient166"><stop
         style="stop-color:#a3a3a3;stop-opacity:1;"
         offset="0"
         id="stop165" /><stop
         style="stop-color:#bbbbbb;stop-opacity:0.26666668;"
         offset="1"
         id="stop166" /></linearGradient><linearGradient
       xlink:href="#linearGradient166"
       id="linearGradient432"
       gradientUnits="userSpaceOnUse"
       gradientTransform="matrix(0.14674113,0,0,0.14674113,8.2682303,240.4951)"
       x1="-594.72961"
       y1="1197.9462"
       x2="-573.10284"
       y2="1197.9462" /></defs><g
     id="layer1"
     transform="translate(19.30101,-236.68224)"><g
       id="g525"><rect
         style="opacity:0;fill:#ffffff;fill-opacity:1;stroke:none;stroke-width:0.82777;stroke-linecap:round;stroke-linejoin:round;stroke-miterlimit:4;stroke-dasharray:none;stroke-dashoffset:0;stroke-opacity:1;paint-order:fill markers stroke;stop-color:#000000"
         id="rect447"
         width="5.2717261"
         height="5.2717261"
         x="-19.30101"
         y="236.68224" /><g
         id="path417"><path
           style="color:#000000;fill:url(#linearGradient432);stroke-width:0.320802;stroke-linecap:round;stroke-linejoin:round;-inkscape-stroke:none;paint-order:fill markers stroke"
           d="m -18.108627,237.8489 v 2.9384 h 2.88696 v -2.9384 z"
           id="path526" /><path
           style="color:#000000;fill:#a3a3a3;stroke-linecap:round;stroke-linejoin:round;-inkscape-stroke:none;paint-order:fill markers stroke"
           d="m -18.109375,237.68945 c -0.08839,1.4e-4 -0.160014,0.0718 -0.160156,0.16016 v 2.9375 c 1.42e-4,0.0884 0.07176,0.16002 0.160156,0.16016 h 0.125 2.107422 0.65625 c 0.08839,-1.4e-4 0.160014,-0.0718 0.160156,-0.16016 v -2.9375 c -1.42e-4,-0.0884 -0.07176,-0.16002 -0.160156,-0.16016 z m 0.162109,0.32032 h 2.564453 v 2.61718 h -0.419921 l -1.015625,-1.23047 c -0.06485,-0.0793 -0.186428,-0.0784 -0.25,0.002 l -0.878907,1.08593 z m 1.766487,0.23559 c -0.321765,-2e-4 -0.585664,0.26417 -0.585938,0.58594 -2.19e-4,0.32212 0.263851,0.5881 0.585938,0.58789 0.321721,-2.8e-4 0.586088,-0.26609 0.585937,-0.58789 -3.15e-4,-0.32147 -0.264547,-0.58565 -0.585937,-0.58594 z"
           id="path527" /></g></g></g></svg>
