<?xml version="1.0" encoding="UTF-8" standalone="no"?>
<!-- Created with Inkscape (http://www.inkscape.org/) -->

<svg
   width="5.2717261mm"
   height="5.2717261mm"
   viewBox="0 0 5.2717263 5.2717261"
   version="1.1"
   id="svg1"
   xml:space="preserve"
   xmlns="http://www.w3.org/2000/svg"
   xmlns:svg="http://www.w3.org/2000/svg"><defs
     id="defs1" /><g
     id="layer1"
     transform="translate(37.277107,-227.22142)"><g
       id="g629"><rect
         style="opacity:0;fill:#ffffff;fill-opacity:1;stroke:none;stroke-width:0.82777;stroke-linecap:round;stroke-linejoin:round;stroke-miterlimit:4;stroke-dasharray:none;stroke-dashoffset:0;stroke-opacity:1;paint-order:fill markers stroke;stop-color:#000000"
         id="rect440"
         width="5.2717261"
         height="5.2717261"
         x="-37.277107"
         y="227.22142" /><g
         id="g337"
         transform="matrix(0.32898766,0,0,0.32898766,-459.85418,203.13892)"><g
           id="rect289"
           transform="matrix(0.84122162,0.54069047,-0.84122162,0.54069047,0,0)"><path
             style="color:#000000;fill:#bbbbbb;fill-opacity:0.266667;stroke-width:1.02202;stroke-linejoin:round;stroke-dashoffset:1.89039;paint-order:fill markers stroke"
             d="m 842.99261,-694.20721 h 4.62571 c 0.41932,0 0.75689,0.33757 0.75689,0.75688 v 4.62572 c 0,0.41931 -0.33757,0.75689 -0.75689,0.75689 h -4.62571 c -0.41932,0 -0.75689,-0.33758 -0.75689,-0.75689 v -4.62572 c 0,-0.41931 0.33757,-0.75688 0.75689,-0.75688 z"
             id="path628" /><path
             id="path629"
             style="color:#000000;fill:#a3a3a3;stroke-linejoin:round;stroke-dashoffset:1.89039;paint-order:fill markers stroke"
             d="m 838.13564,-698.30815 c -0.23023,0.23023 -0.37393,0.54726 -0.37393,0.89394 l -1.1e-4,4.62507 c 0,0.69336 0.57472,1.26808 1.26808,1.26808 l 2.6952,7.6e-4 -1.8e-4,2.69613 c 0,0.69358 0.57451,1.26808 1.26809,1.26808 l 4.626,-10e-4 c 0.69358,0 1.26786,-0.57429 1.26786,-1.26787 l 10e-4,-4.626 c 0,-0.69358 -0.57451,-1.26808 -1.26809,-1.26808 l -2.69613,1.8e-4 -7.5e-4,-2.6952 c 0,-0.69336 -0.57473,-1.26809 -1.26809,-1.26809 l -4.62507,1.2e-4 c -0.34667,0 -0.66371,0.1437 -0.89393,0.37392 z m 4.61072,6.78607 0.90839,9.1e-4 c 0.69336,0 1.26786,-0.57451 1.26786,-1.26786 l -3.9e-4,-0.90601 2.69613,-1.8e-4 c 0.14506,0 0.24403,0.099 0.24403,0.24403 l 10e-4,4.62652 c 0,0.14506 -0.099,0.24698 -0.24409,0.24699 l -4.62745,-4e-4 c -0.14506,0 -0.24548,-0.10042 -0.24548,-0.24548 z" /></g><g
           id="rect334"
           transform="matrix(0.84122162,0.54069047,-0.84122162,0.54069047,0,0)"><path
             style="color:#000000;fill:#a3a3a3;stroke-width:1.02121;stroke-linecap:round;stroke-linejoin:round"
             d="m 839.02837,-698.17145 h 4.62572 c 0.41931,0 0.75688,0.33757 0.75688,0.75689 v 4.62572 c 0,0.41931 -0.33757,0.75688 -0.75688,0.75688 h -4.62572 c -0.41931,0 -0.75689,-0.33757 -0.75689,-0.75688 v -4.62572 c 0,-0.41932 0.33758,-0.75689 0.75689,-0.75689 z"
             id="path626" /></g></g></g></g></svg>
