<?xml version="1.0" encoding="UTF-8" standalone="no"?>
<!-- Created with Inkscape (http://www.inkscape.org/) -->

<svg
   width="5.271843mm"
   height="5.2718749mm"
   viewBox="0 0 5.2718431 5.2718749"
   version="1.1"
   id="svg1"
   xml:space="preserve"
   xmlns="http://www.w3.org/2000/svg"
   xmlns:svg="http://www.w3.org/2000/svg"><defs
     id="defs1" /><g
     id="layer1"
     transform="translate(37.330063,-217.7606)"><g
       id="g582"><rect
         style="opacity:0;fill:#ffffff;fill-opacity:1;stroke:none;stroke-width:0.82777;stroke-linecap:round;stroke-linejoin:round;stroke-miterlimit:4;stroke-dasharray:none;stroke-dashoffset:0;stroke-opacity:1;paint-order:fill markers stroke;stop-color:#000000"
         id="rect341"
         width="5.2717261"
         height="5.2717261"
         x="-37.330063"
         y="217.7606" /><path
         style="color:#000000;fill:#bbbbbb;fill-opacity:0.266667;stroke-width:0.32069;stroke-linejoin:round;stroke-dashoffset:1.803;paint-order:fill markers stroke"
         d="m -34.694202,218.72003 c 0.928646,0 1.676263,0.74761 1.676263,1.67627 0,0.92865 -0.747617,1.67628 -1.676263,1.67628 -0.928659,0 -1.676276,-0.74763 -1.676276,-1.67628 0,-0.92866 0.747617,-1.67627 1.676276,-1.67627 z"
         id="path575" /><path
         id="path576"
         style="color:#000000;fill:#a3a3a3;stroke-width:1.24342;stroke-linejoin:round;stroke-dashoffset:1.803;paint-order:fill markers stroke"
         d="m -34.694235,218.5604 c -1.014715,0 -1.836064,0.82135 -1.836064,1.83606 0,1.05814 0.844369,1.83607 1.836064,1.83607 1.054408,0 1.836064,-0.83845 1.836064,-1.83607 0,-1.01472 -0.821349,-1.83606 -1.836064,-1.83606 z m 0,0.32091 c 0.8426,0 1.51567,0.67257 1.51567,1.51515 0,0.32256 -0.09873,0.61997 -0.267684,0.86455 l -0.430465,-0.38809 0.425814,-0.38861 c 0.06491,-0.0597 0.06918,-0.16067 0.0098,-0.22582 -0.02835,-0.0306 -0.06738,-0.0491 -0.109037,-0.0512 -0.04277,-0.002 -0.08496,0.0124 -0.116789,0.0408 l -0.448551,0.4098 -0.457336,-0.41187 c -0.03183,-0.0289 -0.07389,-0.0437 -0.116789,-0.0413 h -0.643372 v -0.52451 h 0.160197 0.784448 c 0.08841,-10e-6 0.160185,-0.0717 0.160197,-0.1602 2.74e-4,-0.0887 -0.07151,-0.1607 -0.160197,-0.16071 h -0.784448 -0.320394 c -0.08866,1e-5 -0.160458,0.072 -0.160197,0.16071 v 2.05311 c -0.340298,-0.27691 -0.556038,-0.69941 -0.556038,-1.17668 0,-0.84258 0.672565,-1.51515 1.515153,-1.51515 z m -0.638721,1.64383 h 0.589628 l 0.389641,0.35036 -0.430465,0.39274 c -0.06565,0.0591 -0.07109,0.15999 -0.0124,0.22583 0.05906,0.0657 0.159987,0.0712 0.225826,0.0124 l 0.455786,-0.41599 0.45992,0.41341 c -0.270456,0.25367 -0.635413,0.40824 -1.039213,0.40824 -0.228913,0 -0.444959,-0.0502 -0.638721,-0.13952 z m 3.274736,1.40766 -1.100191,1.09968 h 1.100191 z" /></g></g></svg>
