<?xml version="1.0" encoding="UTF-8" standalone="no"?>
<!-- Created with Inkscape (http://www.inkscape.org/) -->

<svg
   width="5.2717261mm"
   height="5.2717261mm"
   viewBox="0 0 5.2717263 5.2717261"
   version="1.1"
   id="svg1"
   xml:space="preserve"
   xmlns="http://www.w3.org/2000/svg"
   xmlns:svg="http://www.w3.org/2000/svg"><defs
     id="defs1" /><g
     id="layer1"
     transform="translate(110.5004,-236.6582)"><g
       id="g556"><g
         id="g515"><rect
           style="opacity:0;fill:#ffffff;fill-opacity:1;stroke:none;stroke-width:0.82777;stroke-linecap:round;stroke-linejoin:round;stroke-miterlimit:4;stroke-dasharray:none;stroke-dashoffset:0;stroke-opacity:1;paint-order:fill markers stroke;stop-color:#000000"
           id="rect463"
           width="5.2717261"
           height="5.2717261"
           x="-110.5004"
           y="236.6582" /><g
           id="g240"
           transform="translate(-236.95228,128.45129)"><path
             id="path239"
             style="color:#000000;fill:#a3a3a3;stroke-linejoin:bevel;-inkscape-stroke:none;paint-order:fill markers stroke"
             d="m 129.06458,109.094 c -0.48669,0.0124 -0.88276,0.41441 -0.88315,0.90382 v 0.69143 h 0.46302 v -0.69143 c 2e-4,-0.24704 0.19639,-0.44133 0.44338,-0.44132 0.24715,0 0.44132,0.19421 0.44132,0.44132 v 0.69143 h 0.46509 v -0.69143 c 0,-0.49742 -0.4089,-0.90382 -0.90641,-0.90382 -0.008,0 -0.0155,-2e-4 -0.0232,0 z m 0.0232,0.90588 a 0.209565,0.209565 0 0 0 -0.20877,0.21084 v 1.33791 a 0.209565,0.209565 0 0 0 0.20877,0.20929 0.209565,0.209565 0 0 0 0.20929,-0.20929 v -1.33791 a 0.209565,0.209565 0 0 0 -0.20929,-0.21084 z m -0.9064,0.92966 v 0.7581 c 0,0.49745 0.40895,0.90433 0.9064,0.90433 0.49726,4e-5 0.90609,-0.40711 0.90641,-0.90433 v -0.7581 h -0.46509 v 0.7581 c -1.6e-4,0.247 -0.19428,0.44133 -0.44132,0.44131 -0.24715,0 -0.44338,-0.19416 -0.44338,-0.44131 v -0.7581 z" /></g></g></g></g></svg>
