<?xml version="1.0" encoding="UTF-8" standalone="no"?>
<!-- Created with Inkscape (http://www.inkscape.org/) -->

<svg
   width="5.2717261mm"
   height="5.2717261mm"
   viewBox="0 0 5.2717263 5.2717261"
   version="1.1"
   id="svg1"
   xml:space="preserve"
   xmlns="http://www.w3.org/2000/svg"
   xmlns:svg="http://www.w3.org/2000/svg"><defs
     id="defs1" /><g
     id="layer1"
     transform="translate(82.62825,-236.6582)"><g
       id="g559"><g
         id="g518"><rect
           style="opacity:0;fill:#ffffff;fill-opacity:1;stroke:none;stroke-width:0.82777;stroke-linecap:round;stroke-linejoin:round;stroke-miterlimit:4;stroke-dasharray:none;stroke-dashoffset:0;stroke-opacity:1;paint-order:fill markers stroke;stop-color:#000000"
           id="rect457"
           width="5.2717261"
           height="5.2717261"
           x="-82.62825"
           y="236.6582" /><g
           id="g286"
           transform="matrix(1.2434175,0,0,1.2434175,-179.83848,153.37047)"><path
             id="rect286"
             style="fill:#a3a3a3;fill-opacity:1;stroke:none;stroke-width:0.165665;stroke-linecap:square;stroke-linejoin:round;stroke-dasharray:none;stroke-opacity:1"
             d="m 80.280314,67.699252 c -0.391326,0.01003 -0.707939,0.334894 -0.708183,0.728547 v 0.433886 h -0.03657 c -0.124754,0 -0.225255,0.09048 -0.225255,0.202813 v 1.239319 c 0,0.11233 0.100501,0.202813 0.225255,0.202813 h 1.528162 c 0.124753,0 0.225255,-0.09048 0.225255,-0.202813 v -1.239319 c 0,-0.112331 -0.100502,-0.202813 -0.225255,-0.202813 h -0.03657 v -0.433886 c 0,-0.400061 -0.328062,-0.728547 -0.728131,-0.728547 -0.0062,0 -0.01249,-1.59e-4 -0.0187,0 z m 0.0091,0.373209 c 0.0031,-7.6e-5 0.0065,-10e-7 0.0096,0 0.198732,0 0.357416,0.1566 0.357416,0.355338 v 0.433886 h -0.71317 v -0.433886 c 1.22e-4,-0.195534 0.151971,-0.350548 0.346195,-0.355338 z" /></g></g></g></g></svg>
