<?xml version="1.0" encoding="UTF-8" standalone="no"?>
<!-- Created with Inkscape (http://www.inkscape.org/) -->

<svg
   width="5.2717261mm"
   height="5.2717261mm"
   viewBox="0 0 5.2717263 5.2717261"
   version="1.1"
   id="svg1"
   xml:space="preserve"
   xmlns="http://www.w3.org/2000/svg"
   xmlns:svg="http://www.w3.org/2000/svg"><defs
     id="defs1" /><g
     id="layer1"
     transform="translate(28.259796,-217.7606)"><g
       id="g552"><rect
         style="opacity:0;fill:#ffffff;fill-opacity:1;stroke:none;stroke-width:0.82777;stroke-linecap:round;stroke-linejoin:round;stroke-miterlimit:4;stroke-dasharray:none;stroke-dashoffset:0;stroke-opacity:1;paint-order:fill markers stroke;stop-color:#000000"
         id="rect340"
         width="5.2717261"
         height="5.2717261"
         x="-28.259796"
         y="217.7606" /><g
         id="g190"
         transform="matrix(0.41587101,0,0,-0.41587101,-643.83593,377.55867)"
         style="stroke-width:0.771304;stroke-dasharray:none"><g
           id="path189"><path
             style="color:#000000;fill:#363636;stroke-linecap:round;stroke-linejoin:round"
             d="m 1482.5749,375.39222 h 7.9452"
             id="path551" /><path
             style="color:#000000;fill:#a3a3a3;stroke-linecap:round;stroke-linejoin:round"
             d="m 1482.5742,375.00586 a 0.38565201,0.38565201 0 0 0 -0.3847,0.38672 0.38565201,0.38565201 0 0 0 0.3847,0.38476 h 7.9453 a 0.38565201,0.38565201 0 0 0 0.3868,-0.38476 0.38565201,0.38565201 0 0 0 -0.3868,-0.38672 z"
             id="path552" /></g><g
           id="path190"><path
             style="color:#000000;fill:#bbbbbb;fill-opacity:0.266667;stroke-linejoin:round;stroke-dashoffset:1.803;paint-order:fill markers stroke"
             d="m 1482.8191,380.42985 2.8091,-2.7079 c 0.5093,-0.49096 1.3292,-0.49097 1.8386,-10e-6 l 2.809,2.70787 z"
             id="path549" /><path
             style="color:#000000;fill:#a3a3a3;stroke-linejoin:round;stroke-dashoffset:1.803;paint-order:fill markers stroke"
             d="m 1486.5469,376.96875 c -0.4289,0 -0.8565,0.15737 -1.1856,0.47461 l -2.8105,2.70898 a 0.38569057,0.38569057 0 0 0 0.2676,0.66407 h 7.457 a 0.38569057,0.38569057 0 0 0 0.2676,-0.66407 l -2.8086,-2.70898 c -0.3292,-0.31722 -0.7586,-0.47461 -1.1875,-0.47461 z m 0,0.76953 c 0.2357,0 0.4721,0.088 0.6523,0.26172 l 2.1211,2.04492 h -5.5469 L 1485.8965,378 c 0.1802,-0.17372 0.4147,-0.26172 0.6504,-0.26172 z"
             id="path550" /></g></g></g></g></svg>
