<?xml version="1.0" encoding="UTF-8" standalone="no"?>
<!-- Created with Inkscape (http://www.inkscape.org/) -->

<svg
   width="5.2717261mm"
   height="5.2717261mm"
   viewBox="0 0 5.2717263 5.2717261"
   version="1.1"
   id="svg1"
   xml:space="preserve"
   xmlns="http://www.w3.org/2000/svg"
   xmlns:svg="http://www.w3.org/2000/svg"><defs
     id="defs1" /><g
     id="layer1"
     transform="translate(82.62825,-217.7606)"><g
       id="g595"><rect
         style="opacity:0;fill:#ffffff;fill-opacity:1;stroke:none;stroke-width:0.82777;stroke-linecap:round;stroke-linejoin:round;stroke-miterlimit:4;stroke-dasharray:none;stroke-dashoffset:0;stroke-opacity:1;paint-order:fill markers stroke;stop-color:#000000"
         id="rect346"
         width="5.2717261"
         height="5.2717261"
         x="-82.62825"
         y="217.7606" /><path
         style="color:#000000;fill:#bbbbbb;fill-opacity:0.266667;stroke-width:0.320434;stroke-linecap:round;stroke-linejoin:round;paint-order:fill markers stroke"
         d="m -80.03265,222.03447 -1.635563,-1.63793 1.664842,-1.66721 1.635563,1.63792 z"
         id="path594" /><path
         id="path595"
         style="color:#000000;fill:#a3a3a3;stroke-linecap:round;stroke-linejoin:round;paint-order:fill markers stroke"
         d="m -80.004131,218.56815 a 0.16023302,0.16023302 0 0 0 -0.113171,0.047 l -1.663981,1.66811 a 0.16023302,0.16023302 0 0 0 0,0.22634 l 1.635042,1.63866 a 0.16023302,0.16023302 0 0 0 0.226343,0 l 1.666048,-1.66759 a 0.16023302,0.16023302 0 0 0 0,-0.22686 l -1.636593,-1.63866 a 0.16023302,0.16023302 0 0 0 -0.113688,-0.047 z m 0,0.38706 1.41025,1.4118 -1.439189,1.44177 -1.408182,-1.41232 z m -0.190169,0.71882 v 0.51108 h -0.551388 v 0.39377 h 0.551388 v 0.54467 h 0.40411 v -0.54467 h 0.532784 v -0.39377 h -0.532784 v -0.51108 z" /></g></g></svg>
