<?xml version="1.0" encoding="UTF-8" standalone="no"?>
<!-- Created with Inkscape (http://www.inkscape.org/) -->

<svg
   width="5.2717261mm"
   height="5.2717261mm"
   viewBox="0 0 5.2717263 5.2717261"
   version="1.1"
   id="svg1"
   xml:space="preserve"
   xmlns="http://www.w3.org/2000/svg"
   xmlns:svg="http://www.w3.org/2000/svg"><defs
     id="defs1" /><g
     id="layer1"
     transform="translate(73.558022,-227.00418)"><g
       id="g614"><rect
         style="opacity:0;fill:#ffffff;fill-opacity:1;stroke:none;stroke-width:0.82777;stroke-linecap:round;stroke-linejoin:round;stroke-miterlimit:4;stroke-dasharray:none;stroke-dashoffset:0;stroke-opacity:1;paint-order:fill markers stroke;stop-color:#000000"
         id="rect449"
         width="5.2717261"
         height="5.2717261"
         x="-73.558022"
         y="227.00418" /><g
         id="g613"><path
           style="color:#000000;fill:#bbbbbb;fill-opacity:0.266667;stroke-width:0.320433;stroke-linejoin:round;stroke-dasharray:none;stroke-dashoffset:1.803;-inkscape-stroke:none;paint-order:markers fill stroke"
           d="m -71.457121,230.58059 c -0.668737,-0.28856 -1.406295,-0.94056 -1.406295,-0.94056 0,0 0.737577,-0.652 1.406327,-0.94056 0.281552,-0.12149 0.788315,-0.12148 1.069885,1e-5 0.668737,0.28857 1.406295,0.94056 1.406295,0.94056 0,0 -0.737577,0.652 -1.406327,0.94056 -0.281553,0.12149 -0.788315,0.12148 -1.069885,-1e-5 z"
           id="path612" /><path
           id="path613"
           style="color:#000000;fill:#a3a3a3;stroke-width:0.121068;stroke-linejoin:round;stroke-dasharray:none;stroke-dashoffset:1.803;-inkscape-stroke:none;paint-order:markers fill stroke"
           d="m -70.914766,228.2736 a 0.16021682,0.16021682 0 0 0 -0.164334,0.15658 l -0.0036,0.17363 c -0.155243,0.014 -0.304955,0.048 -0.432018,0.10284 -0.19453,0.0839 -0.390193,0.19546 -0.573607,0.31212 l -0.130744,-0.17673 a 0.16021682,0.16021682 0 0 0 -0.1049,-0.0631 0.16021682,0.16021682 0 0 0 -0.04186,-5.1e-4 0.16021682,0.16021682 0 0 0 -0.077,0.03 0.16021682,0.16021682 0 0 0 -0.03359,0.22428 l 0.121446,0.16536 c -0.350982,0.24847 -0.606685,0.47491 -0.606685,0.47491 a 0.1546593,0.16600704 0 0 0 0,0.25631 c 0,0 0.739914,0.66179 1.446938,0.96687 0.341143,0.14721 0.843815,0.14719 1.184942,0 0.707039,-0.30508 1.446944,-0.96687 1.446944,-0.96687 a 0.1546593,0.16600704 0 0 0 -2e-6,-0.2558 c 0,0 -0.255537,-0.22678 -0.606683,-0.47542 l 0.121954,-0.16536 a 0.16021682,0.16021682 0 0 0 -0.0341,-0.22428 0.16021682,0.16021682 0 0 0 -0.077,-0.03 0.16021682,0.16021682 0 0 0 -0.04186,5.2e-4 0.16021682,0.16021682 0 0 0 -0.104901,0.063 l -0.130742,0.17673 c -0.183368,-0.11665 -0.379121,-0.22821 -0.573606,-0.31213 -0.127349,-0.0549 -0.276931,-0.0889 -0.432532,-0.10283 l 0.0036,-0.16639 a 0.16021682,0.16021682 0 0 0 -0.156059,-0.16382 z m -0.0072,0.66921 c 0.183147,3e-5 0.365982,0.0245 0.476973,0.0723 0.516798,0.223 1.010183,0.62358 1.205097,0.78652 -0.194917,0.16293 -0.688295,0.56352 -1.205097,0.78652 -0.221968,0.0958 -0.732484,0.0958 -0.954466,0 -0.516838,-0.22303 -1.009715,-0.62413 -1.204579,-0.78703 0.194925,-0.16295 0.687779,-0.56353 1.204582,-0.78652 0.110984,-0.0479 0.294343,-0.0719 0.47749,-0.0718 z m -10e-7,0.15451 a 0.70421993,0.70421987 0 0 0 -0.704349,0.70383 0.70421993,0.70421987 0 0 0 0.704349,0.70435 0.70421993,0.70421987 0 0 0 0.703834,-0.70435 0.70421993,0.70421987 0 0 0 -0.05374,-0.26923 0.35302962,0.35302959 0 0 1 -0.305411,0.17673 0.35302962,0.35302959 0 0 1 -0.352947,-0.35295 0.35302962,0.35302959 0 0 1 0.106454,-0.25166 0.70421993,0.70421987 0 0 0 -0.09819,-0.007 z" /></g></g></g></svg>
