<?xml version="1.0" encoding="UTF-8" standalone="no"?>
<!-- Created with Inkscape (http://www.inkscape.org/) -->

<svg
   width="10.552536mm"
   height="10.552521mm"
   viewBox="0 0 10.552536 10.552521"
   version="1.1"
   id="svg1"
   inkscape:version="1.3-dev (82aa67f2, 2022-10-21)"
   sodipodi:docname="layers.svg"
   xml:space="preserve"
   xmlns:inkscape="http://www.inkscape.org/namespaces/inkscape"
   xmlns:sodipodi="http://sodipodi.sourceforge.net/DTD/sodipodi-0.dtd"
   xmlns="http://www.w3.org/2000/svg"
   xmlns:svg="http://www.w3.org/2000/svg"><sodipodi:namedview
     id="namedview1"
     pagecolor="#000000"
     bordercolor="#e92727"
     borderopacity="1"
     inkscape:showpageshadow="2"
     inkscape:pageopacity="0.0"
     inkscape:pagecheckerboard="0"
     inkscape:deskcolor="#000000"
     inkscape:document-units="mm"
     showgrid="false"
     inkscape:zoom="1.4142136"
     inkscape:cx="-410.12193"
     inkscape:cy="460.32651"
     inkscape:window-width="1920"
     inkscape:window-height="1051"
     inkscape:window-x="-9"
     inkscape:window-y="-9"
     inkscape:window-maximized="1"
     inkscape:current-layer="layer1"
     showguides="true"
     inkscape:lockguides="true"><sodipodi:guide
       position="10.289877,253.89546"
       orientation="0,-1"
       id="guide243"
       inkscape:locked="true" /><sodipodi:guide
       position="-204.675,246.22483"
       orientation="1,0"
       id="guide244"
       inkscape:locked="true" /><sodipodi:guide
       position="-211.03602,245.47647"
       orientation="1,0"
       id="guide245"
       inkscape:locked="true" /><sodipodi:guide
       position="-211.03602,245.47647"
       orientation="1,0"
       id="guide257"
       inkscape:locked="true" /></sodipodi:namedview><defs
     id="defs1" /><g
     inkscape:label="Layer 1"
     inkscape:groupmode="layer"
     id="layer1"
     transform="translate(37.643556,-252.74249)"><g
       id="g664"><rect
         style="font-variation-settings:normal;fill:#ffffff;fill-opacity:1;stroke:none;stroke-width:0.320429;stroke-linecap:square;stroke-linejoin:miter;stroke-miterlimit:4;stroke-dasharray:none;stroke-dashoffset:1.803;stroke-opacity:1;paint-order:stroke fill markers;stop-color:#000000"
         id="rect655"
         width="10.552534"
         height="10.552534"
         x="-263.29501"
         y="-37.643551"
         transform="rotate(-90)" /><path
         id="path656"
         style="color:#000000;fill:#191919;fill-opacity:1;stroke:none;stroke-width:0.27351;stroke-linecap:round;stroke-linejoin:round;paint-order:fill markers stroke"
         d="m -36.006816,254.3794 v 0.84233 h 0.214974 v -0.62735 h 0.627868 v -0.21498 z m 1.417484,0 v 0.21498 h 0.66766 v -0.21498 z m 1.241268,0 v 0.21498 h 0.694531 v -0.21498 z m 1.269173,0 v 0.21498 h 0.693498 v -0.21498 z m 1.26814,0 v 0.21498 h 0.667659 v -0.21498 z m 1.242301,0 v 0.21498 h 0.627869 v 0.62735 h 0.212907 v -0.84233 z m -6.438366,1.41697 v 0.66714 h 0.214974 v -0.66714 z m 7.066235,0 v 0.66714 h 0.212907 v -0.66714 z m -5.118034,0.31523 c -0.07381,-1.3e-4 -0.133453,0.06 -0.133325,0.13384 v 0.86868 c -1.23e-4,0.0738 0.05952,0.13397 0.133325,0.13384 h 1.105359 v 2.54455 c -1.23e-4,0.0738 0.05952,0.13345 0.133325,0.13332 h 0.905888 c 0.0736,-1.7e-4 0.13293,-0.0597 0.132808,-0.13332 v -2.54455 h 1.105359 c 0.07381,1.3e-4 0.133449,-0.06 0.133326,-0.13384 v -0.86868 c 1.28e-4,-0.0738 -0.05952,-0.13397 -0.133326,-0.13384 z m -1.948201,0.92655 v 0.69402 h 0.214974 v -0.69402 z m 7.066235,0 v 0.69402 h 0.212907 v -0.69402 z m -7.066235,1.26814 v 0.69453 h 0.214974 v -0.69453 z m 7.066235,0 v 0.69453 h 0.212907 v -0.69453 z m -7.066235,1.26866 v 0.66714 h 0.214974 v -0.66714 z m 7.066235,0 v 0.66714 h 0.212907 v -0.66714 z m -7.066235,1.24178 v 0.84181 h 0.107487 0.735355 v -0.2129 h -0.627868 v -0.62891 z m 7.066235,0 v 0.62891 h -0.627869 v 0.2129 h 0.840776 v -0.84181 z m -5.648751,0.62891 v 0.2129 h 0.66766 v -0.2129 z m 1.241268,0 v 0.2129 h 0.694531 v -0.2129 z m 1.269173,0 v 0.2129 h 0.693498 v -0.2129 z m 1.26814,0 v 0.2129 h 0.667659 v -0.2129 z" /></g></g></svg>
