<?xml version="1.0" encoding="UTF-8" standalone="no"?>
<!-- Created with Inkscape (http://www.inkscape.org/) -->

<svg
   width="5.2717261mm"
   height="5.2717261mm"
   viewBox="0 0 5.2717263 5.2717261"
   version="1.1"
   id="svg1"
   xml:space="preserve"
   xmlns:xlink="http://www.w3.org/1999/xlink"
   xmlns="http://www.w3.org/2000/svg"
   xmlns:svg="http://www.w3.org/2000/svg"><defs
     id="defs1"><linearGradient
       id="linearGradient166"><stop
         style="stop-color:#a3a3a3;stop-opacity:1;"
         offset="0"
         id="stop165" /><stop
         style="stop-color:#bbbbbb;stop-opacity:0.26666668;"
         offset="1"
         id="stop166" /></linearGradient><linearGradient
       xlink:href="#linearGradient166"
       id="linearGradient434"
       gradientUnits="userSpaceOnUse"
       gradientTransform="matrix(0.14674108,0,0,0.14674108,26.822068,231.0181)"
       x1="-594.72961"
       y1="1197.9462"
       x2="-573.10284"
       y2="1197.9462" /></defs><g
     id="layer1"
     transform="translate(10.119294,-227.22142)"><g
       id="g531"><rect
         style="opacity:0;fill:#ffffff;fill-opacity:1;stroke:none;stroke-width:0.82777;stroke-linecap:round;stroke-linejoin:round;stroke-miterlimit:4;stroke-dasharray:none;stroke-dashoffset:0;stroke-opacity:1;paint-order:fill markers stroke;stop-color:#000000"
         id="rect452"
         width="5.2717261"
         height="5.2717261"
         x="-10.119294"
         y="227.22142" /><g
         id="path408"><path
           style="color:#000000;fill:url(#linearGradient434);stroke-width:0.320802;stroke-linecap:round;stroke-linejoin:round;paint-order:fill markers stroke"
           d="m -9.1749299,228.08355 v 0.86964 h 1.23888 v 2.67786 h 0.90552 v -2.67786 h 1.23859 v -0.86964 z"
           id="path530" /><path
           style="color:#000000;fill:#a3a3a3;stroke-linecap:round;stroke-linejoin:round;paint-order:fill markers stroke"
           d="m -9.1757813,227.92383 a 0.16041704,0.16041704 0 0 0 -0.1601562,0.16015 v 0.86914 a 0.16041704,0.16041704 0 0 0 0.1601562,0.16016 h 1.0800782 v 2.51758 a 0.16041704,0.16041704 0 0 0 0.1601562,0.16016 H -7.03125 a 0.16041704,0.16041704 0 0 0 0.1601563,-0.16016 v -2.51758 h 1.0800781 a 0.16041704,0.16041704 0 0 0 0.1601562,-0.16016 v -0.86914 a 0.16041704,0.16041704 0 0 0 -0.1601562,-0.16015 z m 0.1621094,0.32031 h 3.0605469 v 0.54883 H -7.03125 a 0.16041704,0.16041704 0 0 0 -0.1601562,0.16015 v 2.51758 h -0.5839844 v -2.51758 a 0.16041704,0.16041704 0 0 0 -0.1601563,-0.16015 h -1.078125 z"
           id="path531" /></g></g></g></svg>
