<?xml version="1.0" encoding="UTF-8" standalone="no"?>
<!-- Created with Inkscape (http://www.inkscape.org/) -->

<svg
   width="5.2717261mm"
   height="5.2717261mm"
   viewBox="0 0 5.2717263 5.2717261"
   version="1.1"
   id="svg1"
   xml:space="preserve"
   xmlns="http://www.w3.org/2000/svg"
   xmlns:svg="http://www.w3.org/2000/svg"><defs
     id="defs1" /><g
     id="layer1"
     transform="translate(64.487793,-227.00418)"><g
       id="g618"><rect
         style="opacity:0;fill:#ffffff;fill-opacity:1;stroke:none;stroke-width:0.82777;stroke-linecap:round;stroke-linejoin:round;stroke-miterlimit:4;stroke-dasharray:none;stroke-dashoffset:0;stroke-opacity:1;paint-order:fill markers stroke;stop-color:#000000"
         id="rect437"
         width="5.2717261"
         height="5.2717261"
         x="-64.487793"
         y="227.00418" /><path
         id="path617"
         style="color:#000000;fill:#bbbbbb;fill-opacity:0.266667;stroke-width:0.320692;stroke-linejoin:round;stroke-dashoffset:1.803;paint-order:fill markers stroke"
         d="m -63.152446,227.98205 c -0.20003,0 -0.361219,0.16093 -0.361219,0.3607 v 1.28467 c 0,0.19977 0.161189,0.36071 0.361219,0.36071 h 0.956014 v 0.94877 c 0,0.20003 0.161178,0.36122 0.361218,0.36122 h 1.284159 c 0.19995,0 0.360702,-0.16119 0.360702,-0.36122 v -1.28364 c 0,-0.20003 -0.160752,-0.36122 -0.360702,-0.36122 h -0.95653 l -5.17e-4,-0.94929 c 0.0065,-0.19966 -0.160672,-0.3607 -0.360702,-0.3607 z" /><path
         id="path618"
         style="color:#000000;fill:#a3a3a3;stroke-linejoin:round;stroke-dashoffset:1.803;paint-order:fill markers stroke"
         d="m -63.15193,227.82133 c -0.28597,0 -0.52141,0.23548 -0.52141,0.52142 v 1.28519 c 0,0.28594 0.23544,0.51935 0.52141,0.51935 h 0.7953 v 0.7891 c 0,0.28609 0.2353,0.52141 0.52142,0.52141 h 1.28312 c 0.28607,0 0.52142,-0.23525 0.52142,-0.52141 v -1.28313 c 0,-0.28616 -0.23535,-0.52141 -0.52142,-0.52141 h -0.79478 v -0.7891 c 0,-0.28594 -0.23544,-0.52142 -0.52142,-0.52142 z m -0.20102,0.6873 h 1.68568 v 0.78341 0.33383 c 0,0.12456 -0.07778,0.20172 -0.20102,0.20172 h -1.28364 c -0.11408,0 -0.20102,-0.0854 -0.20102,-0.19896 z m 2.00608,0.94361 h 0.79478 c 0.11383,0 0.20102,0.0871 0.20102,0.20102 v 1.28313 c 0,0.1139 -0.0872,0.20102 -0.20102,0.20102 h -1.28312 c -0.11396,0 -0.20153,-0.0871 -0.20154,-0.20102 v -0.7891 h 0.16846 c 0.358849,0 0.5212,-0.19565 0.5212,-0.5193 6.8e-5,-0.0586 1.47e-4,-0.11717 2.2e-4,-0.17575 z" /></g></g></svg>
