<?xml version="1.0" encoding="UTF-8" standalone="no"?>
<!-- Created with Inkscape (http://www.inkscape.org/) -->

<svg
   width="5.2717261mm"
   height="5.2717261mm"
   viewBox="0 0 5.2717263 5.2717261"
   version="1.1"
   id="svg1"
   xml:space="preserve"
   xmlns="http://www.w3.org/2000/svg"
   xmlns:svg="http://www.w3.org/2000/svg"><defs
     id="defs1" /><g
     id="layer1"
     transform="translate(103.02592,-236.6582)"><g
       id="g557"><g
         id="g516"><rect
           style="opacity:0;fill:#ffffff;fill-opacity:1;stroke:none;stroke-width:0.82777;stroke-linecap:round;stroke-linejoin:round;stroke-miterlimit:4;stroke-dasharray:none;stroke-dashoffset:0;stroke-opacity:1;paint-order:fill markers stroke;stop-color:#000000"
           id="rect471"
           width="5.2717261"
           height="5.2717261"
           x="-103.02592"
           y="236.6582" /><path
           style="color:#000000;fill:#a3a3a3;stroke-linejoin:bevel;paint-order:fill markers stroke"
           d="m -100.39063,237.54492 c -0.49726,-1e-5 -0.90389,0.40712 -0.90429,0.9043 v 0.6914 h 0.46289 v -0.6914 c 2e-4,-0.24704 0.19441,-0.44141 0.4414,-0.44141 0.24716,0 0.443364,0.19626 0.443364,0.44336 v 0.69141 h 0.462891 v -0.69141 c 0,-0.49741 -0.408743,-0.90625 -0.906255,-0.90625 z m -0.90429,1.83594 v 0.75781 c 0,0.49745 0.40685,0.9043 0.90429,0.9043 0.497261,4e-5 0.905934,-0.40708 0.906255,-0.9043 v -0.75781 h -0.462891 v 0.75781 c -1.59e-4,0.247 -0.196314,0.44143 -0.443364,0.44141 -0.24714,0 -0.4414,-0.19426 -0.4414,-0.44141 v -0.75781 z"
           id="path477" /></g></g></g></svg>
