<?xml version="1.0" encoding="UTF-8" standalone="no"?>
<!-- Created with Inkscape (http://www.inkscape.org/) -->

<svg
   width="5.2717261mm"
   height="5.2717261mm"
   viewBox="0 0 5.2717263 5.2717261"
   version="1.1"
   id="svg1"
   xml:space="preserve"
   xmlns="http://www.w3.org/2000/svg"
   xmlns:svg="http://www.w3.org/2000/svg"><defs
     id="defs1" /><g
     id="layer1"
     transform="translate(91.698494,-236.65822)"><g
       id="g558"><g
         id="g517"><rect
           style="opacity:0;fill:#ffffff;fill-opacity:1;stroke:none;stroke-width:0.82777;stroke-linecap:round;stroke-linejoin:round;stroke-miterlimit:4;stroke-dasharray:none;stroke-dashoffset:0;stroke-opacity:1;paint-order:fill markers stroke;stop-color:#000000"
           id="rect481"
           width="5.2717261"
           height="5.2717261"
           x="-91.698494"
           y="236.65822" /><g
           id="g397"
           transform="matrix(0.32898754,0,0,0.32898754,-520.08899,163.20354)"><path
             id="path396"
             style="color:#000000;fill:#a3a3a3;stroke-linejoin:bevel;paint-order:fill markers stroke"
             d="m 1310.1606,225.98074 c -1.4885,-8e-5 -2.7527,1.18558 -2.7536,2.69701 h 1.4074 c 4e-4,-0.75071 0.5724,-1.28964 1.3462,-1.2896 0.7511,0 1.3445,0.59502 1.3445,1.34615 v 1.64146 h -4.2332 c -0.4715,0 -0.8514,0.34198 -0.8514,0.76654 v 4.68404 c 0,0.42455 0.3799,0.76653 0.8514,0.76653 h 5.7757 c 0.4715,0 0.8514,-0.34198 0.8514,-0.76653 v -4.68404 c 0,-0.42456 -0.3799,-0.76654 -0.8514,-0.76654 h -0.1335 v -1.64146 c 0,-1.51204 -1.2415,-2.75356 -2.7535,-2.75356 z" /></g></g></g></g></svg>
