<?xml version="1.0" encoding="UTF-8" standalone="no"?>
<!-- Created with Inkscape (http://www.inkscape.org/) -->

<svg
   width="5.2717261mm"
   height="5.2717261mm"
   viewBox="0 0 5.2717263 5.2717261"
   version="1.1"
   id="svg1"
   xml:space="preserve"
   sodipodi:docname="lock_visibility.svg"
   inkscape:version="1.3-dev (82aa67f2, 2022-10-21)"
   xmlns:inkscape="http://www.inkscape.org/namespaces/inkscape"
   xmlns:sodipodi="http://sodipodi.sourceforge.net/DTD/sodipodi-0.dtd"
   xmlns="http://www.w3.org/2000/svg"
   xmlns:svg="http://www.w3.org/2000/svg"><sodipodi:namedview
     id="namedview1"
     pagecolor="#ffffff"
     bordercolor="#000000"
     borderopacity="0.25"
     inkscape:showpageshadow="2"
     inkscape:pageopacity="0.0"
     inkscape:pagecheckerboard="0"
     inkscape:deskcolor="#d1d1d1"
     inkscape:document-units="mm"
     inkscape:zoom="7.9051908"
     inkscape:cx="14.800402"
     inkscape:cy="12.396918"
     inkscape:window-width="1920"
     inkscape:window-height="1051"
     inkscape:window-x="-9"
     inkscape:window-y="-9"
     inkscape:window-maximized="1"
     inkscape:current-layer="svg1" /><defs
     id="defs1" /><g
     id="g347"
     transform="matrix(0.76595564,0,0,0.76595564,-85.168869,-42.114379)"><path
       id="path236"
       style="color:#000000;fill:#bbbbbb;fill-opacity:0.266667;stroke-width:0.416319;stroke-linejoin:round;stroke-dasharray:none;stroke-dashoffset:1.803;paint-order:markers fill stroke"
       d="m 114.63293,57.286138 c -0.25607,2e-6 -0.512,0.03925 -0.6949,0.118166 -0.86886,0.374907 -1.82756,1.221958 -1.82756,1.221958 0,0 0.36978,0.327237 0.85804,0.664686 0.0433,-0.26166 0.27451,-0.458169 0.54653,-0.476026 v -0.185303 c 4e-4,-0.61242 0.50284,-1.118584 1.11654,-1.118558 0.6137,0 1.11923,0.504861 1.11923,1.118551 v 0.187997 c 0.26985,0.01965 0.5024,0.213127 0.54651,0.472669 0.48811,-0.337366 0.85738,-0.664022 0.85738,-0.664022 0,0 -0.95803,-0.847026 -1.82688,-1.221943 -0.18291,-0.07892 -0.43883,-0.118166 -0.69489,-0.118179 z" /><path
       id="path341"
       style="color:#000000;fill:#a3a3a3;stroke-width:0.157296;stroke-linejoin:round;stroke-dasharray:none;stroke-dashoffset:1.803;paint-order:markers fill stroke"
       d="m 114.64239,56.641601 c -0.11499,-0.0026 -0.21033,0.08865 -0.21291,0.203605 l -0.005,0.225309 c -0.20168,0.01816 -0.39612,0.06261 -0.5612,0.133842 -0.25273,0.109045 -0.5069,0.253585 -0.74518,0.405143 l -0.17001,-0.229443 c -0.0328,-0.04432 -0.0815,-0.07341 -0.13591,-0.08165 -0.0136,-0.0019 -0.0277,-0.0028 -0.0413,-0.0021 -0.0409,0.0019 -0.0801,0.01599 -0.11318,0.04031 -0.0926,0.06835 -0.11192,0.198967 -0.0434,0.291455 l 0.15813,0.214974 c -0.45636,0.32302 -0.78859,0.617016 -0.78859,0.617016 -0.0976,0.08627 -0.0976,0.24652 0,0.332796 0,0 0.42333,0.378694 0.97669,0.749309 v -0.163815 c 0,-0.107174 0.0328,-0.205174 0.0868,-0.289388 -0.26299,-0.185797 -0.4766,-0.360224 -0.59893,-0.462504 0.25326,-0.211703 0.89333,-0.732438 1.56477,-1.02216 0.14379,-0.06205 0.38128,-0.09289 0.61856,-0.09302 h 5.2e-4 c 2e-4,2.17e-4 4.8e-4,7.63e-4 0.001,0 0.23795,4.8e-5 0.4754,0.03183 0.6196,0.09405 0.67145,0.289731 1.31255,0.809945 1.5658,1.021643 -0.12252,0.102393 -0.33597,0.27669 -0.59945,0.462504 0.0546,0.08384 0.0879,0.181681 0.0879,0.288871 v 0.163298 c 0.55251,-0.370133 0.97565,-0.748275 0.97565,-0.748275 0.0976,-0.08627 0.0976,-0.24652 0,-0.332796 0,0 -0.33176,-0.294465 -0.78806,-0.617533 l 0.15813,-0.214974 c 0.0685,-0.09248 0.0492,-0.223099 -0.0434,-0.291455 -0.0387,-0.02853 -0.0862,-0.0428 -0.13436,-0.04031 -0.007,3.48e-4 -0.0138,0.0011 -0.0207,0.0021 -0.0544,0.0082 -0.10368,0.03739 -0.13642,0.08165 l -0.17002,0.229443 c -0.23824,-0.151561 -0.49145,-0.29611 -0.74414,-0.405143 -0.16526,-0.07131 -0.36031,-0.11571 -0.56224,-0.133842 l 0.005,-0.216008 c 0.003,-0.114955 -0.0887,-0.210286 -0.20361,-0.212906 z m -0.0326,1.125512 c -0.46303,0.01189 -0.83788,0.396805 -0.83819,0.86248 v 0.419613 h -0.23255 c -0.17867,0 -0.32297,0.146771 -0.32297,0.328145 v 1.655196 l 2.83393,5.17e-4 v -1.655713 c 0,-0.181463 -0.14425,-0.328145 -0.32298,-0.328145 h -0.23254 v -0.419613 c 0,-0.473279 -0.3892,-0.86248 -0.86248,-0.86248 -0.007,0 -0.0149,-1.89e-4 -0.0222,0 z m 0.0222,0.415996 c 0.24823,0 0.447,0.198155 0.447,0.446484 v 0.419613 h -0.8909 v -0.419613 c 1.5e-4,-0.24821 0.1956,-0.446494 0.4439,-0.446484 z" /></g></svg>
