<?xml version="1.0" encoding="UTF-8" standalone="no"?>
<!-- Created with Inkscape (http://www.inkscape.org/) -->

<svg
   width="5.2717261mm"
   height="5.2717261mm"
   viewBox="0 0 5.2717263 5.2717261"
   version="1.1"
   id="svg1"
   xml:space="preserve"
   sodipodi:docname="lock_pixel_edition.svg"
   inkscape:version="1.3-dev (82aa67f2, 2022-10-21)"
   xmlns:inkscape="http://www.inkscape.org/namespaces/inkscape"
   xmlns:sodipodi="http://sodipodi.sourceforge.net/DTD/sodipodi-0.dtd"
   xmlns="http://www.w3.org/2000/svg"
   xmlns:svg="http://www.w3.org/2000/svg"><sodipodi:namedview
     id="namedview1"
     pagecolor="#ffffff"
     bordercolor="#000000"
     borderopacity="0.25"
     inkscape:showpageshadow="2"
     inkscape:pageopacity="0.0"
     inkscape:pagecheckerboard="0"
     inkscape:deskcolor="#d1d1d1"
     inkscape:document-units="mm"
     inkscape:zoom="7.9051908"
     inkscape:cx="7.083953"
     inkscape:cy="12.143919"
     inkscape:window-width="1920"
     inkscape:window-height="1051"
     inkscape:window-x="-9"
     inkscape:window-y="-9"
     inkscape:window-maximized="1"
     inkscape:current-layer="svg1" /><defs
     id="defs1" /><path
     id="path340"
     style="font-variation-settings:normal;fill:#a3a3a3;fill-opacity:1;stroke:none;stroke-width:0.364309;stroke-linecap:square;stroke-linejoin:miter;stroke-miterlimit:4;stroke-dasharray:none;stroke-dashoffset:0;stroke-opacity:1;paint-order:stroke fill markers;stop-color:#000000"
     d="m 1.2214808,0.83477799 c -0.0074,-6.9e-6 -0.0146,2.658e-4 -0.02177,3.96e-4 -0.677365,0.012263 -0.966193,0.63766351 -0.966193,0.63766351 0,0 0.262996,-0.3108816 0.641226,0.043536 0.44409,0.4161269 0.7813462,0.233137 0.7813462,0.233137 L 2.0004523,1.2689867 c 0,0 -0.2641108,-0.37497671 -0.6202475,-0.42312991 -0.05512,-0.0075 -0.107903,-0.011038 -0.158724,-0.011084 z M 2.1524465,1.3639876 1.8076889,1.8571773 c 0,0 0.094382,0.1182957 0.2754888,0.2845938 C 2.2325522,2.0145527 2.425883,1.9371238 2.6357403,1.937133 c 0.4694999,0 0.8549667,0.3856463 0.8549667,0.8549681 v 0.1440778 c 0.1728838,0.011351 0.3262971,0.1153039 0.3926518,0.2648023 0.5752937,0.2559073 1.1158137,0.473795 1.1158137,0.473795 C 5.3143244,3.5416921 4.1376021,2.562928 3.3608778,1.9945261 2.7217158,1.5267853 2.1524465,1.3639876 2.1524465,1.3639876 Z M 2.6187201,2.1330629 C 2.2640625,2.1421229 1.9773338,2.4354185 1.9770992,2.7921011 V 3.1146934 H 1.7973975 c -0.1368531,0 -0.2469904,0.11242 -0.2469904,0.2513445 v 1.2678065 l 2.1710669,3.96e-4 V 3.3660379 c 0,-0.1389927 -0.1104893,-0.2513445 -0.2473877,-0.2513445 H 3.2943852 V 2.7921011 c 0,-0.3625076 -0.2961421,-0.6590382 -0.6586449,-0.6590382 -0.00572,0 -0.011383,-1.44e-4 -0.017027,0 z m 0.017027,0.3186337 c 0.1901352,0 0.3400084,0.1501978 0.3400084,0.3404045 V 3.1146934 H 2.2957396 V 2.7921011 C 2.2958693,2.6019871 2.4455623,2.451689 2.6357471,2.4516966 Z" /></svg>
