<?xml version="1.0" encoding="UTF-8" standalone="no"?>
<!-- Created with Inkscape (http://www.inkscape.org/) -->

<svg
   width="5.2717261mm"
   height="5.2717261mm"
   viewBox="0 0 5.2717263 5.2717261"
   version="1.1"
   id="svg1"
   xml:space="preserve"
   sodipodi:docname="lock_transparency.svg"
   inkscape:version="1.3-dev (82aa67f2, 2022-10-21)"
   xmlns:inkscape="http://www.inkscape.org/namespaces/inkscape"
   xmlns:sodipodi="http://sodipodi.sourceforge.net/DTD/sodipodi-0.dtd"
   xmlns="http://www.w3.org/2000/svg"
   xmlns:svg="http://www.w3.org/2000/svg"><sodipodi:namedview
     id="namedview1"
     pagecolor="#ffffff"
     bordercolor="#000000"
     borderopacity="0.25"
     inkscape:showpageshadow="2"
     inkscape:pageopacity="0.0"
     inkscape:pagecheckerboard="0"
     inkscape:deskcolor="#d1d1d1"
     inkscape:document-units="mm"
     inkscape:zoom="11.179628"
     inkscape:cx="-0.44724207"
     inkscape:cy="15.564024"
     inkscape:window-width="1920"
     inkscape:window-height="1051"
     inkscape:window-x="-9"
     inkscape:window-y="-9"
     inkscape:window-maximized="1"
     inkscape:current-layer="svg1" /><defs
     id="defs1" /><g
     id="g346"
     transform="matrix(0.76595564,0,0,0.76595564,-90.895977,-42.114379)"><path
       id="path291"
       style="color:#000000;fill:#bbbbbb;fill-opacity:0.266667;stroke-width:0.416321;stroke-linejoin:round;stroke-dashoffset:1.803;paint-order:fill markers stroke"
       d="m 122.11015,56.375984 c -1.20652,0 -2.17765,0.970582 -2.17765,2.177128 0,0.5363 0.19186,1.026327 0.51108,1.405082 v -0.58136 c 0,-0.05765 0.009,-0.112885 0.0258,-0.164848 h -0.31833 v -1.30638 h 1.11725 c 0.0561,-0.0652 0.11959,-0.123816 0.18913,-0.174666 v -1.131197 h 1.30587 v 1.13223 c 0.0692,0.05056 0.13217,0.108914 0.1881,0.173633 h 1.11724 v 1.30638 h -0.31729 c 0.0167,0.05196 0.0258,0.107202 0.0258,0.164848 v 0.580843 c 0.31876,-0.378678 0.51056,-0.868527 0.51056,-1.404565 0,-1.206546 -0.97112,-2.177128 -2.17764,-2.177128 z" /><path
       id="path292"
       style="color:#000000;fill:#a3a3a3;stroke-width:0.427434;stroke-linejoin:round;stroke-dashoffset:1.803;paint-order:fill markers stroke"
       d="m 122.11066,56.167211 c -1.31828,0 -2.38641,1.067636 -2.38641,2.385901 0,0.669365 0.27574,1.274207 0.71933,1.707389 v -0.650606 c -0.19243,-0.30462 -0.30334,-0.666857 -0.30334,-1.056783 0,-1.094824 0.87556,-1.969389 1.97042,-1.969389 1.09479,0 1.96939,0.874565 1.96939,1.969389 0,0.389511 -0.11086,0.751327 -0.30282,1.055749 v 0.65164 c 0.44359,-0.433182 0.71933,-1.038024 0.71933,-1.707389 0,-1.318265 -1.06769,-2.385901 -2.3859,-2.385901 z m -0.0238,1.599902 c -0.46303,0.01189 -0.83788,0.396805 -0.83819,0.86248 v 0.419613 h -0.23254 c -0.17867,0 -0.32298,0.146771 -0.32298,0.328145 v 1.655196 l 2.83394,5.17e-4 v -1.655713 c 0,-0.181463 -0.14425,-0.328145 -0.32298,-0.328145 h -0.23255 v -0.419613 c 0,-0.473279 -0.3892,-0.86248 -0.86248,-0.86248 -0.007,0 -0.0149,-1.89e-4 -0.0222,0 z m 0.0222,0.415996 c 0.24823,0 0.447,0.198155 0.447,0.446484 v 0.419613 h -0.8909 v -0.419613 c 1.5e-4,-0.24821 0.1956,-0.446494 0.4439,-0.446484 z" /></g></svg>
