<?xml version="1.0" encoding="UTF-8" standalone="no"?>
<!-- Created with Inkscape (http://www.inkscape.org/) -->

<svg
   width="5.2717261mm"
   height="5.2717261mm"
   viewBox="0 0 5.2717263 5.2717261"
   version="1.1"
   id="svg1"
   xml:space="preserve"
   sodipodi:docname="lock_position.svg"
   inkscape:version="1.3-dev (82aa67f2, 2022-10-21)"
   xmlns:inkscape="http://www.inkscape.org/namespaces/inkscape"
   xmlns:sodipodi="http://sodipodi.sourceforge.net/DTD/sodipodi-0.dtd"
   xmlns="http://www.w3.org/2000/svg"
   xmlns:svg="http://www.w3.org/2000/svg"><sodipodi:namedview
     id="namedview1"
     pagecolor="#ffffff"
     bordercolor="#000000"
     borderopacity="0.25"
     inkscape:showpageshadow="2"
     inkscape:pageopacity="0.0"
     inkscape:pagecheckerboard="0"
     inkscape:deskcolor="#d1d1d1"
     inkscape:document-units="mm"
     inkscape:zoom="7.9051908"
     inkscape:cx="-25.55283"
     inkscape:cy="18.08938"
     inkscape:window-width="1920"
     inkscape:window-height="1051"
     inkscape:window-x="-9"
     inkscape:window-y="-9"
     inkscape:window-maximized="1"
     inkscape:current-layer="svg1" /><defs
     id="defs1" /><path
     id="path138"
     style="fill:#a3a3a3;fill-opacity:1;stroke:none;stroke-width:0.193016;stroke-linecap:square;stroke-linejoin:round;stroke-dasharray:none;stroke-opacity:1"
     d="m 2.6377157,0.62499427 -0.8042994,0.80667853 0.5438515,0.00436 v 0.5418753 c 0.081797,-0.026309 0.1687553,-0.040778 0.2588701,-0.040772 0.09016,0 0.1766522,0.014477 0.2584641,0.040772 V 1.4403924 l 0.5442574,0.00474 C 3.1582132,1.1587199 2.6385659,0.62586587 2.6381139,0.62540097 Z M 1.608593,1.6707467 C 1.322049,1.9515146 0.78845357,2.4714875 0.78845357,2.4714875 L 1.4372028,3.119443 c 0.041515,-0.055616 0.09661,-0.1013758 0.1599086,-0.1333912 l 0.0023,-0.2735105 H 1.7850483 C 1.8039633,2.5126966 1.8923555,2.3318567 2.026099,2.1952065 H 1.6033681 Z m 2.0697346,0 -0.00536,0.5248558 H 3.2458795 C 3.3798298,2.3326272 3.4681444,2.5140408 3.486535,2.7145206 h 0.182083 l -0.0023,0.2679688 c 0.064263,0.031021 0.1200483,0.075821 0.1626813,0.1310158 0.2903265,-0.2837918 0.654684,-0.6384553 0.654684,-0.6384553 z M 2.6187201,2.1330629 C 2.2640289,2.1421429 1.9761368,2.436206 1.975907,2.7928923 V 3.1146934 H 1.7977918 c -0.1368534,0 -0.2469901,0.1124185 -0.2469901,0.2513445 v 1.2678065 l 2.1706723,3.96e-4 V 3.3660379 c 0,-0.1389943 -0.1101061,-0.2513445 -0.2469978,-0.2513445 H 3.2951736 V 2.7928923 c 0,-0.3625076 -0.2969302,-0.6598294 -0.6594341,-0.6598294 -0.00536,0 -0.011413,-1.44e-4 -0.017004,0 z m 0.017004,0.3186337 c 0.1901332,0 0.3408043,0.150986 0.3408043,0.3411957 V 3.1146934 H 2.2945296 V 2.7928923 C 2.2946518,2.6027768 2.4455374,2.4516882 2.6357241,2.4516966 Z" /></svg>
