<?xml version="1.0" encoding="UTF-8" standalone="no"?>
<!-- Created with Inkscape (http://www.inkscape.org/) -->

<svg
   width="5.2717261mm"
   height="5.2717261mm"
   viewBox="0 0 5.2717263 5.2717261"
   version="1.1"
   id="svg1"
   xml:space="preserve"
   xmlns="http://www.w3.org/2000/svg"
   xmlns:svg="http://www.w3.org/2000/svg"><defs
     id="defs1" /><path
     id="path2"
     style="color:#000000;fill:#a3a3a3;stroke-width:0.120482;stroke-linejoin:round;stroke-dasharray:none;stroke-dashoffset:1.803;paint-order:markers fill stroke"
     d="M 1.9046415,0.85848436 C 1.5499821,0.86759434 1.2630576,1.1622238 1.2628202,1.5189091 V 1.8403366 H 1.0845365 c -0.13685291,0 -0.2470133,0.11274 -0.2470133,0.2516642 v 1.2676229 l 1.2169799,5.167e-4 V 3.1446497 c 0,-0.2318566 0.1969254,-0.4003069 0.4237468,-0.4278809 V 2.5725916 C 2.478445,2.279475 2.6266404,2.0168362 2.8518705,1.8584233 2.8235453,1.8469588 2.792784,1.8403366 2.7604032,1.8403366 H 2.5826363 V 1.5189091 c 0,-0.3625096 -0.2984311,-0.66042474 -0.6609416,-0.66042474 -0.00536,0 -0.010946,-1.448e-4 -0.016536,0 z M 1.9041247,1.1773279 c 0.00586,-2.929e-4 0.011627,-2e-7 0.01757,0 0.1901325,0 0.3426148,0.1513728 0.3426148,0.3415812 V 1.8403366 H 1.5816638 V 1.5189091 C 1.581775,1.334733 1.7224363,1.1864091 1.9041247,1.1773279 Z M 3.330911,1.91165 C 2.9762514,1.92076 2.6893271,2.2153891 2.6890897,2.5720748 V 2.8935022 H 2.510806 c -0.136853,0 -0.2470133,0.11274 -0.2470133,0.2516643 v 1.2676229 l 2.1704102,5.167e-4 V 3.1451665 c 0,-0.1389924 -0.1106311,-0.2516643 -0.2475302,-0.2516643 H 4.0089058 V 2.5720748 c 0,-0.36251 -0.2984308,-0.6604248 -0.6609416,-0.6604248 -0.00536,0 -0.010946,-1.448e-4 -0.016536,0 z m -5.167e-4,0.3188436 c 0.00586,-2.929e-4 0.011627,-2e-7 0.01757,0 0.1901328,0 0.3426148,0.1513726 0.3426148,0.3415812 V 2.8935022 H 3.0079333 V 2.5720748 c 1.112e-4,-0.1841763 0.1407723,-0.3325 0.322461,-0.3415812 z" /></svg>
