<?xml version="1.0" encoding="UTF-8" standalone="no"?>
<!-- Created with Inkscape (http://www.inkscape.org/) -->

<svg
   width="512mm"
   height="512mm"
   viewBox="0 0 512 512"
   version="1.1"
   id="svg1"
   xml:space="preserve"
   inkscape:version="1.3-dev (131a0986, 2022-10-18)"
   sodipodi:docname="awesome-icon.svg"
   xmlns:inkscape="http://www.inkscape.org/namespaces/inkscape"
   xmlns:sodipodi="http://sodipodi.sourceforge.net/DTD/sodipodi-0.dtd"
   xmlns:xlink="http://www.w3.org/1999/xlink"
   xmlns="http://www.w3.org/2000/svg"
   xmlns:svg="http://www.w3.org/2000/svg"><sodipodi:namedview
     id="namedview1"
     pagecolor="#000000"
     bordercolor="#707070"
     borderopacity="0.24705882"
     inkscape:showpageshadow="2"
     inkscape:pageopacity="0.0"
     inkscape:pagecheckerboard="true"
     inkscape:deskcolor="#000000"
     inkscape:document-units="mm"
     showgrid="false"
     showborder="false"
     inkscape:zoom="0.27874322"
     inkscape:cx="1858.3412"
     inkscape:cy="852.03866"
     inkscape:window-width="1697"
     inkscape:window-height="832"
     inkscape:window-x="79"
     inkscape:window-y="68"
     inkscape:window-maximized="0"
     inkscape:current-layer="layer1" /><defs
     id="defs1"><linearGradient
       inkscape:collect="always"
       id="linearGradient13"><stop
         style="stop-color:#2b0022;stop-opacity:1"
         offset="0.13375796"
         id="stop13" /><stop
         style="stop-color:#d40055;stop-opacity:1;"
         offset="1"
         id="stop12" /></linearGradient><linearGradient
       inkscape:collect="always"
       id="linearGradient11"><stop
         style="stop-color:#d40055;stop-opacity:1;"
         offset="0"
         id="stop10" /><stop
         style="stop-color:#2b0022;stop-opacity:1"
         offset="1"
         id="stop11" /></linearGradient><radialGradient
       inkscape:collect="always"
       xlink:href="#linearGradient13"
       id="radialGradient13"
       cx="255.99988"
       cy="255.99988"
       fx="255.99988"
       fy="255.99988"
       r="255.99988"
       gradientUnits="userSpaceOnUse"
       gradientTransform="matrix(7.0758593,0,0,7.032205,-1555.4191,-1544.2418)" /><radialGradient
       inkscape:collect="always"
       xlink:href="#linearGradient11"
       id="radialGradient21"
       cx="256"
       cy="255.99998"
       fx="256"
       fy="255.99998"
       r="255.99998"
       gradientUnits="userSpaceOnUse"
       gradientTransform="matrix(1.4560615,0,0,1.4560615,-116.75175,-116.75172)" /></defs><g
     inkscape:label="Layer 1"
     inkscape:groupmode="layer"
     id="layer1"><path
       id="rect10"
       d="M 3.0517578e-5,0 H 512 V 511.99997 H 3.0517578e-5 Z"
       style="fill:url(#radialGradient21);fill-opacity:1;stroke-width:0.869903" /><path
       style="color:#000000;fill:#000000;-inkscape-stroke:none;opacity:0.403774"
       d="m 180.05469,127.12109 c -29.1939,0 -52.9336,23.7397 -52.9336,52.9336 V 256 h 6.90625 v -75.94531 c 0,-25.46118 20.56617,-46.02735 46.02735,-46.02735 h 152.16797 c 25.30763,0 45.75,20.44237 45.75,45.75 v 152.25 c 0,25.41621 -20.52911,45.94532 -45.94532,45.94532 H 256 v 6.90625 h 76.02734 c 29.14893,0 52.85157,-23.70264 52.85157,-52.85157 v -152.25 c 0,-29.04035 -23.6159,-52.65625 -52.65625,-52.65625 z"
       id="path19" /><path
       style="color:#000000;fill:#000000;-inkscape-stroke:none;opacity:0.196226"
       d="m 180.17969,134.07617 c -25.42358,0 -46.10352,20.67994 -46.10352,46.10352 V 256 h 6.5332 v -75.82031 c 0,-21.8923 17.67802,-39.57032 39.57032,-39.57032 h 152.99414 c 21.14547,0 38.21679,17.07133 38.21679,38.2168 v 152.8086 c 0,21.99541 -17.76044,39.75585 -39.75585,39.75585 H 256 v 6.53321 h 75.63477 c 25.52669,0 46.28906,-20.76237 46.28906,-46.28906 v -152.8086 c 0,-24.67675 -20.07325,-44.75 -44.75,-44.75 z"
       id="path16" /><path
       id="rect32"
       style="fill:url(#radialGradient13);fill-opacity:1;stroke:none;stroke-width:0.999999"
       d="M 1.3725879e-4,255.99994 H 128.00008 V 178.53542 A 50.535417,50.535417 0 0 1 178.5355,128 h 154.92904 a 50.535417,50.535417 0 0 1 50.53542,50.53542 v 154.92904 a 50.535417,50.535417 0 0 1 -50.53542,50.53542 H 256.00002 V 511.99982 H 511.9999 V 255.99994 0 H 256.00002 1.3725879e-4 Z"
       sodipodi:nodetypes="ccccccccccccc" /><path
       style="color:#000000;opacity:0.0455927;fill:#000000;stroke-width:1.04246;stroke-linecap:square;stroke-linejoin:round;-inkscape-stroke:none"
       d="m 255.99573,140.49423 c -7.86148,-0.004 -9.473,20.17238 -14.67845,31.89646 -16.65275,37.50648 -51.11897,64.0783 -90.25776,75.9879 -13.45058,4.09289 -16.50449,8.56326 -1.27565,14.77521 35.77149,14.59142 71.22203,34.14038 88.18034,69.04865 6.09329,11.25133 9.6088,24.90636 14.35704,36.65477 6.16363,15.25045 11.77183,-10.52181 16.1346,-23.68742 13.55627,-40.90909 52.30023,-66.41829 92.47609,-81.63468 12.27675,-4.64975 17.98811,-8.87387 1.27393,-14.77521 -36.42844,-12.86195 -71.2206,-34.14066 -88.17862,-69.04866 -6.09329,-11.25133 -8.51038,-23.91456 -12.95767,-35.78016 -0.91394,-1.93229 -2.86181,-3.43567 -5.07385,-3.43686 z"
       id="path13"
       sodipodi:nodetypes="ssssssssssss" /><path
       id="rect2"
       style="fill:#ecff1e;fill-opacity:1;stroke:none;stroke-width:0.0551543;stroke-linecap:square;stroke-linejoin:round"
       d="m 250.7861,164.27805 c -12.24879,41.52188 -44.98617,74.25926 -86.50805,86.50805 -19.41457,5.72722 -19.41457,4.70033 0,10.42755 41.52188,12.2488 74.25926,44.98617 86.50805,86.50805 5.72721,19.41457 4.70033,19.41457 10.42756,0 12.24878,-41.52189 44.98616,-74.25927 86.50804,-86.50805 19.41458,-5.72722 19.41458,-4.70033 0,-10.42756 -41.52188,-12.24878 -74.25926,-44.98616 -86.50805,-86.50804 -5.72722,-19.41458 -4.70033,-19.41457 -10.42755,0 z"
       sodipodi:nodetypes="ccccc" /><path
       id="path9"
       style="fill:#ffd31e;fill-opacity:1;stroke:none;stroke-width:0.0342614;stroke-linecap:square;stroke-linejoin:round"
       d="m 252.76112,199.023 c -7.60885,25.79306 -27.94506,46.12927 -53.73812,53.73812 -12.06018,3.55771 -12.06018,2.91981 0,6.47751 25.79306,7.60886 46.12927,27.94506 53.73812,53.73812 3.5577,12.06018 2.91981,12.06019 6.47752,1e-5 7.60884,-25.79308 27.94505,-46.12928 53.73812,-53.73813 12.06018,-3.5577 12.06018,-2.91981 -1e-5,-6.47751 -25.79306,-7.60885 -46.12927,-27.94506 -53.73812,-53.73812 -3.5577,-12.06019 -2.9198,-12.06018 -6.47751,0 z"
       sodipodi:nodetypes="ccccc" /><path
       id="path10"
       style="fill:#ff931e;fill-opacity:1;stroke:none;stroke-width:0.0175428;stroke-linecap:square;stroke-linejoin:round"
       d="m 254.34155,226.82617 c -3.89594,13.20675 -14.30863,23.61944 -27.51538,27.51537 -6.17514,1.82165 -6.17514,1.49503 0,3.31667 13.20675,3.89594 23.61944,14.30862 27.51538,27.51537 1.82163,6.17514 1.49502,6.17515 3.31666,10e-6 3.89593,-13.20676 14.30863,-23.61945 27.51538,-27.51538 6.17514,-1.82164 6.17514,-1.49503 -10e-6,-3.31667 -13.20674,-3.89593 -23.61944,-14.30862 -27.51537,-27.51537 -1.82164,-6.17515 -1.49502,-6.17514 -3.31666,0 z"
       sodipodi:nodetypes="ccccc" /></g></svg>
